<svg xmlns="http://www.w3.org/2000/svg" xmlns:xlink="http://www.w3.org/1999/xlink" id="Layer_1" x="0px" y="0px" viewBox="0 0 150 150" style="enable-background:new 0 0 150 150;" xml:space="preserve"><style type="text/css">	.st0{display:none;}	.st1{display:inline;}	.st2{fill:#FCB900;}	.st3{display:inline;fill:#FCB900;}	.st4{fill:#FFE4A8;}	.st5{fill:#FFFFFF;}	.st6{opacity:0.25;fill:#FFFFFF;}</style><g class="st0">	<g class="st1">		<g>			<g>				<g>					<path class="st2" d="M117.7,62.7h-1.4c-0.2,0-0.4-0.2-0.4-0.4s0.2-0.4,0.4-0.4h1.4c0.2,0,0.4,0.2,0.4,0.4      S117.9,62.7,117.7,62.7z"></path>				</g>			</g>			<g>				<g>					<path class="st2" d="M126.8,62.7h-2.3c-0.2,0-0.4-0.2-0.4-0.4s0.2-0.4,0.4-0.4h2.3c0.2,0,0.4,0.2,0.4,0.4S127,62.7,126.8,62.7z       M122.2,62.7H120c-0.2,0-0.4-0.2-0.4-0.4s0.2-0.4,0.4-0.4h2.3c0.2,0,0.4,0.2,0.4,0.4S122.5,62.7,122.2,62.7z"></path>				</g>			</g>			<g>				<g>					<path class="st2" d="M130.5,62.7H129c-0.2,0-0.4-0.2-0.4-0.4s0.2-0.4,0.4-0.4h1v-1c0-0.2,0.2-0.4,0.4-0.4      c0.2,0,0.4,0.2,0.4,0.4v1.4C130.9,62.5,130.7,62.7,130.5,62.7z"></path>				</g>			</g>			<g>				<g>					<path class="st2" d="M130.5,58c-0.2,0-0.4-0.2-0.4-0.4v-3.2c0-0.2,0.2-0.4,0.4-0.4c0.2,0,0.4,0.2,0.4,0.4v3.2      C130.9,57.8,130.7,58,130.5,58z M130.5,51.6c-0.2,0-0.4-0.2-0.4-0.4v-3.2c0-0.2,0.2-0.4,0.4-0.4c0.2,0,0.4,0.2,0.4,0.4v3.2      C130.9,51.4,130.7,51.6,130.5,51.6z M130.5,45.1c-0.2,0-0.4-0.2-0.4-0.4v-3.2c0-0.2,0.2-0.4,0.4-0.4c0.2,0,0.4,0.2,0.4,0.4v3.2      C130.9,44.9,130.7,45.1,130.5,45.1z"></path>				</g>			</g>			<g>				<g>					<path class="st2" d="M130.5,38.7c-0.2,0-0.4-0.2-0.4-0.4v-1.4c0-0.2,0.2-0.4,0.4-0.4c0.2,0,0.4,0.2,0.4,0.4v1.4      C130.9,38.5,130.7,38.7,130.5,38.7z"></path>				</g>			</g>		</g>		<g>			<g>				<path class="st2" d="M130.3,37.1c-3.2,0-5.8-2.6-5.8-5.8c0-3.2,2.6-5.8,5.8-5.8c0.2,0,0.4,0.2,0.4,0.4v5h5     c0.2,0,0.4,0.2,0.4,0.4C136.1,34.5,133.5,37.1,130.3,37.1z M129.8,26.3c-2.5,0.2-4.5,2.4-4.5,5c0,2.7,2.2,5,5,5     c2.6,0,4.7-2,5-4.5h-5c-0.2,0-0.4-0.2-0.4-0.4V26.3z"></path>			</g>		</g>		<g>			<g>				<path class="st2" d="M130.3,37.1c-3.2,0-5.8-2.6-5.8-5.8c0-3.2,2.6-5.8,5.8-5.8c0.2,0,0.4,0.2,0.4,0.4v5h5     c0.2,0,0.4,0.2,0.4,0.4C136.1,34.5,133.5,37.1,130.3,37.1z M129.8,26.3c-2.5,0.2-4.5,2.4-4.5,5c0,2.7,2.2,5,5,5     c2.6,0,4.7-2,5-4.5h-5c-0.2,0-0.4-0.2-0.4-0.4V26.3z"></path>			</g>		</g>		<g>			<g>				<path class="st2" d="M138.1,29.6h-5.4c-0.2,0-0.4-0.2-0.4-0.4v-5.4c0-0.2,0.2-0.4,0.4-0.4c3.2,0,5.8,2.6,5.8,5.8     C138.5,29.4,138.3,29.6,138.1,29.6z M133.1,28.7h4.5c-0.2-2.4-2.1-4.3-4.5-4.5V28.7z"></path>			</g>		</g>	</g>	<g class="st1">		<g>			<g>				<g>					<path class="st2" d="M33.2,63.1h-1.4c-0.2,0-0.4-0.2-0.4-0.4s0.2-0.4,0.4-0.4h1.4c0.2,0,0.4,0.2,0.4,0.4S33.4,63.1,33.2,63.1z"></path>				</g>			</g>			<g>				<g>					<path class="st2" d="M29.5,63.1h-2.3c-0.2,0-0.4-0.2-0.4-0.4s0.2-0.4,0.4-0.4h2.3c0.2,0,0.4,0.2,0.4,0.4S29.7,63.1,29.5,63.1z       M24.9,63.1h-2.3c-0.2,0-0.4-0.2-0.4-0.4s0.2-0.4,0.4-0.4h2.3c0.2,0,0.4,0.2,0.4,0.4S25.2,63.1,24.9,63.1z"></path>				</g>			</g>			<g>				<g>					<path class="st2" d="M20.4,63.1H19c-0.2,0-0.4-0.2-0.4-0.4v-1.4c0-0.2,0.2-0.4,0.4-0.4c0.2,0,0.4,0.2,0.4,0.4v1h1      c0.2,0,0.4,0.2,0.4,0.4S20.6,63.1,20.4,63.1z"></path>				</g>			</g>			<g>				<g>					<path class="st2" d="M19,59c-0.2,0-0.4-0.2-0.4-0.4v-2.7c0-0.2,0.2-0.4,0.4-0.4c0.2,0,0.4,0.2,0.4,0.4v2.7      C19.4,58.8,19.2,59,19,59z M19,53.7c-0.2,0-0.4-0.2-0.4-0.4v-2.7c0-0.2,0.2-0.4,0.4-0.4c0.2,0,0.4,0.2,0.4,0.4v2.7      C19.4,53.5,19.2,53.7,19,53.7z M19,48.4c-0.2,0-0.4-0.2-0.4-0.4v-2.7c0-0.2,0.2-0.4,0.4-0.4c0.2,0,0.4,0.2,0.4,0.4v2.7      C19.4,48.2,19.2,48.4,19,48.4z M19,43c-0.2,0-0.4-0.2-0.4-0.4v-2.7c0-0.2,0.2-0.4,0.4-0.4c0.2,0,0.4,0.2,0.4,0.4v2.7      C19.4,42.8,19.2,43,19,43z"></path>				</g>			</g>			<g>				<g>					<path class="st2" d="M19,37.7c-0.2,0-0.4-0.2-0.4-0.4v-1.4c0-0.2,0.2-0.4,0.4-0.4c0.2,0,0.4,0.2,0.4,0.4v1.4      C19.4,37.5,19.2,37.7,19,37.7z"></path>				</g>			</g>		</g>		<g>			<g>				<g>					<path class="st2" d="M19,36.3c-3.7,0-6.7-3-6.7-6.7c0-3.7,3-6.7,6.7-6.7c3.7,0,6.7,3,6.7,6.7C25.7,33.3,22.7,36.3,19,36.3z       M19,23.8c-3.2,0-5.8,2.6-5.8,5.8c0,3.2,2.6,5.8,5.8,5.8s5.8-2.6,5.8-5.8C24.8,26.4,22.2,23.8,19,23.8z"></path>				</g>			</g>			<g>				<g>					<path class="st2" d="M19,36.3c-1.7,0-3-2.9-3-6.7c0-3.8,1.3-6.7,3-6.7c1.7,0,3,2.9,3,6.7C21.9,33.4,20.7,36.3,19,36.3z       M19,23.8c-1,0-2.1,2.4-2.1,5.8c0,3.4,1.1,5.8,2.1,5.8c1,0,2.1-2.5,2.1-5.8C21.1,26.2,20,23.8,19,23.8z"></path>				</g>			</g>			<g>				<g>					<path class="st2" d="M24.5,27.1H13.7c-0.2,0-0.4-0.2-0.4-0.4s0.2-0.4,0.4-0.4h10.8c0.2,0,0.4,0.2,0.4,0.4S24.7,27.1,24.5,27.1z      "></path>				</g>			</g>			<g>				<g>					<path class="st2" d="M25.2,30H12.7c-0.2,0-0.4-0.2-0.4-0.4s0.2-0.4,0.4-0.4h12.5c0.2,0,0.4,0.2,0.4,0.4S25.5,30,25.2,30z"></path>				</g>			</g>			<g>				<g>					<path class="st2" d="M24.5,33H13.7c-0.2,0-0.4-0.2-0.4-0.4c0-0.2,0.2-0.4,0.4-0.4h10.8c0.2,0,0.4,0.2,0.4,0.4      C24.9,32.8,24.7,33,24.5,33z"></path>				</g>			</g>		</g>	</g>	<g class="st1">		<g>			<g>				<g>					<g>						<g>							<g>								<path class="st2" d="M98.1,113.4H48.1c-0.2,0-0.4-0.2-0.4-0.4V91.4c0-2.2-1.8-3.9-3.9-3.9h-10c-0.2,0-0.4-0.2-0.4-0.4V56.4         c0-3.4,2.8-6.2,6.2-6.2h71.1c3.4,0,6.2,2.8,6.2,6.2v32.4c0,0.2-0.2,0.4-0.4,0.4c-2,0-4,0.3-5.9,1c-4.4,1.5-8,4.5-10.3,8.5         c-1.1,2-1.8,4.1-2.1,6.3c-0.1,0.9-0.2,1.8-0.2,2.7c0,1.8,0.2,3.5,0.7,5.2c0,0.1,0,0.3-0.1,0.4         C98.3,113.4,98.2,113.4,98.1,113.4z M48.6,112.6h48.9c-0.4-1.6-0.6-3.2-0.6-4.9c0-1,0.1-1.9,0.2-2.9         c0.3-2.3,1.1-4.5,2.2-6.6c2.4-4.2,6.2-7.4,10.8-8.9c1.8-0.6,3.8-1,5.7-1v-32c0-2.9-2.4-5.3-5.3-5.3H39.5         c-2.9,0-5.3,2.4-5.3,5.3v30.3h9.6c2.6,0,4.8,2.2,4.8,4.8V112.6z"></path>							</g>						</g>						<g>							<g>								<path class="st2" d="M98.1,113.4H48.1c-0.2,0-0.4-0.2-0.4-0.4v-8.1c0-0.2,0.2-0.4,0.4-0.4h49.4c0.1,0,0.2,0.1,0.3,0.1         c0.1,0.1,0.1,0.2,0.1,0.3c-0.1,0.9-0.2,1.8-0.2,2.7c0,1.8,0.2,3.5,0.7,5.2c0,0.1,0,0.3-0.1,0.4         C98.3,113.4,98.2,113.4,98.1,113.4z M48.6,112.6h48.9c-0.4-1.6-0.6-3.2-0.6-4.9c0-0.8,0-1.6,0.1-2.4H48.6V112.6z"></path>							</g>						</g>						<g>							<g>								<g>									<path class="st2" d="M99.7,98.9H48.1c-0.2,0-0.4-0.2-0.4-0.4v-7c0-2.2-1.8-3.9-3.9-3.9h-4c-0.2,0-0.4-0.2-0.4-0.4V56.4          c0-0.2,0.2-0.4,0.4-0.4h70.5c0.2,0,0.4,0.2,0.4,0.4v33.4c0,0.2-0.1,0.3-0.3,0.4c-4.4,1.5-8,4.5-10.3,8.5          C100,98.8,99.9,98.9,99.7,98.9z M48.6,98h50.9c2.3-4,6-7.1,10.4-8.6V56.8H40.2v29.8h3.6c2.6,0,4.8,2.2,4.8,4.8V98z"></path>								</g>							</g>							<g>								<g>									<path class="st2" d="M110.2,62.7H39.7c-0.2,0-0.4-0.2-0.4-0.4v-5.9c0-0.2,0.2-0.4,0.4-0.4h70.5c0.2,0,0.4,0.2,0.4,0.4v5.9          C110.7,62.5,110.5,62.7,110.2,62.7z M40.2,61.8h69.6v-5H40.2V61.8z"></path>								</g>							</g>						</g>					</g>					<g>						<g>							<g>								<path class="st2" d="M83.1,123.4H66.9c-0.2,0-0.4-0.2-0.4-0.4V113c0-0.2,0.2-0.4,0.4-0.4h16.3c0.2,0,0.4,0.2,0.4,0.4v9.9         C83.6,123.2,83.4,123.4,83.1,123.4z M67.3,122.5h15.4v-9.1H67.3V122.5z"></path>							</g>						</g>						<g>							<g>								<path class="st2" d="M91.8,127.1H58.2c-0.2,0-0.4-0.2-0.4-0.4c0-2.3,1.9-4.2,4.2-4.2h26.2c2.3,0,4.2,1.9,4.2,4.2         C92.2,126.9,92,127.1,91.8,127.1z M58.7,126.2h32.7c-0.2-1.6-1.6-2.9-3.3-2.9H61.9C60.2,123.4,58.9,124.6,58.7,126.2z"></path>							</g>						</g>						<g>							<g>								<path class="st2" d="M75,111.2c-1.2,0-2.2-1-2.2-2.2c0-1.2,1-2.2,2.2-2.2c1.2,0,2.2,1,2.2,2.2         C77.2,110.2,76.2,111.2,75,111.2z M75,107.6c-0.7,0-1.3,0.6-1.3,1.4c0,0.7,0.6,1.3,1.3,1.3c0.7,0,1.4-0.6,1.4-1.3         C76.3,108.2,75.7,107.6,75,107.6z"></path>							</g>						</g>					</g>				</g>			</g>			<g>				<g>					<path class="st2" d="M43.2,60.6c-0.7,0-1.3-0.6-1.3-1.3c0-0.7,0.6-1.3,1.3-1.3s1.3,0.6,1.3,1.3C44.6,60,44,60.6,43.2,60.6z       M43.2,58.5c-0.4,0-0.8,0.3-0.8,0.8c0,0.4,0.3,0.8,0.8,0.8s0.8-0.3,0.8-0.8C44,58.9,43.6,58.5,43.2,58.5z"></path>				</g>			</g>			<g>				<g>					<path class="st2" d="M47.1,60.6c-0.7,0-1.3-0.6-1.3-1.3c0-0.7,0.6-1.3,1.3-1.3s1.3,0.6,1.3,1.3C48.5,60,47.9,60.6,47.1,60.6z       M47.1,58.5c-0.4,0-0.8,0.3-0.8,0.8c0,0.4,0.3,0.8,0.8,0.8s0.8-0.3,0.8-0.8C47.9,58.9,47.5,58.5,47.1,58.5z"></path>				</g>			</g>			<g>				<g>					<path class="st2" d="M51,60.6c-0.7,0-1.3-0.6-1.3-1.3c0-0.7,0.6-1.3,1.3-1.3s1.3,0.6,1.3,1.3C52.4,60,51.8,60.6,51,60.6z       M51,58.5c-0.4,0-0.8,0.3-0.8,0.8c0,0.4,0.3,0.8,0.8,0.8c0.4,0,0.8-0.3,0.8-0.8C51.8,58.9,51.4,58.5,51,58.5z"></path>				</g>			</g>			<g>				<g>					<g>						<path class="st2" d="M105.6,60.6H84.1c-0.7,0-1.3-0.6-1.3-1.3c0-0.7,0.6-1.3,1.3-1.3h21.5c0.7,0,1.3,0.6,1.3,1.3       C106.9,60,106.3,60.6,105.6,60.6z M84.1,58.5c-0.4,0-0.8,0.3-0.8,0.8c0,0.4,0.3,0.8,0.8,0.8h21.5c0.4,0,0.8-0.3,0.8-0.8       c0-0.4-0.3-0.8-0.8-0.8H84.1z"></path>					</g>				</g>			</g>		</g>		<g>			<g>				<g>					<path class="st2" d="M73.4,87h-5.7c-0.2,0-0.4-0.2-0.4-0.4v-9.2c0-0.2,0.2-0.4,0.4-0.4h5.7c0.2,0,0.4,0.2,0.4,0.4v9.2      C73.8,86.8,73.6,87,73.4,87z M68.1,86.1h4.9v-8.4h-4.9V86.1z"></path>				</g>			</g>			<g>				<g>					<path class="st2" d="M83.8,87h-5.7c-0.2,0-0.4-0.2-0.4-0.4v-18c0-0.2,0.2-0.4,0.4-0.4h5.7c0.2,0,0.4,0.2,0.4,0.4v18      C84.2,86.8,84,87,83.8,87z M78.5,86.1h4.9V68.9h-4.9V86.1z"></path>				</g>			</g>			<g>				<g>					<path class="st2" d="M94.2,87h-5.7c-0.2,0-0.4-0.2-0.4-0.4V72.2c0-0.2,0.2-0.4,0.4-0.4h5.7c0.2,0,0.4,0.2,0.4,0.4v14.3      C94.6,86.8,94.4,87,94.2,87z M88.9,86.1h4.9V72.7h-4.9V86.1z"></path>				</g>			</g>			<g>				<g>					<path class="st2" d="M104.6,87h-5.7c-0.2,0-0.4-0.2-0.4-0.4V67.1c0-0.2,0.2-0.4,0.4-0.4h5.7c0.2,0,0.4,0.2,0.4,0.4v19.4      C105,86.8,104.9,87,104.6,87z M99.3,86.1h4.9V67.6h-4.9V86.1z"></path>				</g>			</g>		</g>		<g>			<g>				<path class="st2" d="M58.2,66.1h-15c-0.2,0-0.4-0.2-0.4-0.4s0.2-0.4,0.4-0.4h15c0.2,0,0.4,0.2,0.4,0.4S58.4,66.1,58.2,66.1z"></path>			</g>		</g>		<g>			<g>				<path class="st2" d="M53.2,69.7h-10c-0.2,0-0.4-0.2-0.4-0.4s0.2-0.4,0.4-0.4h10c0.2,0,0.4,0.2,0.4,0.4S53.5,69.7,53.2,69.7z"></path>			</g>		</g>		<g>			<g>				<g>					<path class="st2" d="M54.6,85.5c-1.6,0-2.9-1.2-2.9-2.6c0-0.2,0.2-0.4,0.4-0.4s0.4,0.2,0.4,0.4c0,1,0.9,1.8,2,1.8      c1.1,0,2-0.8,2-1.8c0-1-0.9-1.8-2-1.8c-1.6,0-2.9-1.2-2.9-2.6c0-1.4,1.3-2.6,2.9-2.6c1.6,0,2.9,1.2,2.9,2.6      c0,0.2-0.2,0.4-0.4,0.4s-0.4-0.2-0.4-0.4c0-1-0.9-1.8-2-1.8c-1.1,0-2,0.8-2,1.8c0,1,0.9,1.8,2,1.8c1.6,0,2.9,1.2,2.9,2.6      C57.5,84.3,56.2,85.5,54.6,85.5z"></path>				</g>			</g>			<g>				<g>					<path class="st2" d="M54.6,76.7c-0.2,0-0.4-0.2-0.4-0.4v-1.5c0-0.2,0.2-0.4,0.4-0.4s0.4,0.2,0.4,0.4v1.5      C55.1,76.5,54.9,76.7,54.6,76.7z"></path>				</g>			</g>			<g>				<g>					<path class="st2" d="M54.6,87c-0.2,0-0.4-0.2-0.4-0.4v-1.5c0-0.2,0.2-0.4,0.4-0.4s0.4,0.2,0.4,0.4v1.5      C55.1,86.8,54.9,87,54.6,87z"></path>				</g>			</g>		</g>		<g>			<g>				<path class="st2" d="M103.6,91.4H50.4c-0.2,0-0.4-0.2-0.4-0.4s0.2-0.4,0.4-0.4h53.2c0.2,0,0.4,0.2,0.4,0.4     S103.8,91.4,103.6,91.4z"></path>			</g>		</g>		<g>			<g>				<path class="st2" d="M92.4,94.9h-42c-0.2,0-0.4-0.2-0.4-0.4s0.2-0.4,0.4-0.4h42c0.2,0,0.4,0.2,0.4,0.4S92.7,94.9,92.4,94.9z"></path>			</g>		</g>	</g>	<g class="st1">		<g>			<g>				<g>					<path class="st2" d="M43.8,127.1H18.5c-0.9,0-1.7-0.2-2.5-0.7c-0.2-0.1-0.2-0.3-0.2-0.5l0.4-1.4c0-0.1,0.2-0.3,0.3-0.3      c0.8-0.2,1.5-0.5,2.1-0.9c0.1-0.1,0.3-0.1,0.4,0l1.6,0.9l2.8-2.8l-0.9-1.6c-0.1-0.1-0.1-0.3,0-0.4c0.4-0.7,0.7-1.4,0.9-2.1      c0-0.1,0.2-0.3,0.3-0.3l1.7-0.5l0-4l-1.7-0.5c-0.1,0-0.3-0.2-0.3-0.3c-0.2-0.7-0.5-1.5-0.9-2.1c-0.1-0.1-0.1-0.3,0-0.4l0.9-1.6      l-2.8-2.8l-1.6,0.9c-0.1,0.1-0.3,0.1-0.4,0c-0.7-0.4-1.4-0.7-2.1-0.9c-0.1,0-0.3-0.2-0.3-0.3l-0.5-1.7l-1.7,0      c-0.2,0-0.4-0.2-0.4-0.4v-11c0-2.6,2.2-4.8,4.8-4.8h25.3c2.6,0,4.8,2.2,4.8,4.8v30.9C48.6,124.9,46.4,127.1,43.8,127.1z       M16.8,125.8c0.5,0.3,1.1,0.4,1.7,0.4h25.3c2.2,0,3.9-1.8,3.9-3.9V91.4c0-2.2-1.8-3.9-3.9-3.9H18.5c-2.2,0-3.9,1.8-3.9,3.9V102      l1.6,0c0.2,0,0.4,0.1,0.4,0.3l0.5,1.8c0.6,0.2,1.3,0.5,1.9,0.8l1.6-0.9c0.2-0.1,0.4-0.1,0.5,0.1l3.3,3.3      c0.1,0.1,0.2,0.4,0.1,0.5l-0.9,1.6c0.3,0.6,0.6,1.2,0.8,1.9l1.8,0.5c0.2,0.1,0.3,0.2,0.3,0.4l0,4.6c0,0.2-0.1,0.4-0.3,0.4      l-1.8,0.5c-0.2,0.6-0.5,1.3-0.8,1.9l0.9,1.6c0.1,0.2,0.1,0.4-0.1,0.5l-3.3,3.3c-0.1,0.1-0.4,0.2-0.5,0.1l-1.6-0.9      c-0.6,0.3-1.2,0.6-1.9,0.8L16.8,125.8z"></path>				</g>			</g>			<g>				<g>					<path class="st2" d="M43.1,102h-24c-1,0-1.9-0.8-1.9-1.9v-8c0-1,0.8-1.9,1.9-1.9h24c1,0,1.9,0.8,1.9,1.9v8      C45,101.1,44.1,102,43.1,102z M19.2,91.1c-0.6,0-1,0.5-1,1v8c0,0.6,0.5,1,1,1h24c0.6,0,1-0.5,1-1v-8c0-0.6-0.5-1-1-1H19.2z"></path>				</g>			</g>			<g>				<g>					<g>						<path class="st2" d="M43.1,122.5h-3.2c-1,0-1.9-0.8-1.9-1.9v-13.1c0-1,0.8-1.9,1.9-1.9h3.2c1,0,1.9,0.8,1.9,1.9v13.1       C45,121.6,44.1,122.5,43.1,122.5z M39.9,106.5c-0.6,0-1,0.5-1,1v13.1c0,0.6,0.5,1,1,1h3.2c0.6,0,1-0.5,1-1v-13.1       c0-0.6-0.5-1-1-1H39.9z"></path>					</g>				</g>			</g>			<g>				<g>					<g>						<path class="st2" d="M32.7,122.5h-3.2c-1,0-1.9-0.8-1.9-1.9v-3.2c0-1,0.8-1.9,1.9-1.9h3.2c1,0,1.9,0.8,1.9,1.9v3.2       C34.6,121.6,33.8,122.5,32.7,122.5z M29.5,116.4c-0.6,0-1,0.5-1,1v3.2c0,0.6,0.5,1,1,1h3.2c0.6,0,1-0.5,1-1v-3.2       c0-0.6-0.5-1-1-1H29.5z"></path>					</g>				</g>				<g>					<g>						<path class="st2" d="M32.7,112.6h-3.2c-1,0-1.9-0.8-1.9-1.9v-3.2c0-1,0.8-1.9,1.9-1.9h3.2c1,0,1.9,0.8,1.9,1.9v3.2       C34.6,111.7,33.8,112.6,32.7,112.6z M29.5,106.5c-0.6,0-1,0.5-1,1v3.2c0,0.6,0.5,1,1,1h3.2c0.6,0,1-0.5,1-1v-3.2       c0-0.6-0.5-1-1-1H29.5z"></path>					</g>				</g>			</g>		</g>		<g>			<g>				<g>					<path class="st2" d="M26.1,96.9H24c-0.2,0-0.4-0.2-0.4-0.4s0.2-0.4,0.4-0.4h2.1c0.2,0,0.4,0.2,0.4,0.4S26.3,96.9,26.1,96.9z"></path>				</g>			</g>			<g>				<g>					<path class="st2" d="M32.2,96.9h-2.1c-0.2,0-0.4-0.2-0.4-0.4s0.2-0.4,0.4-0.4h2.1c0.2,0,0.4,0.2,0.4,0.4S32.4,96.9,32.2,96.9z"></path>				</g>			</g>			<g>				<g>					<path class="st2" d="M38.3,96.9h-2.1c-0.2,0-0.4-0.2-0.4-0.4s0.2-0.4,0.4-0.4h2.1c0.2,0,0.4,0.2,0.4,0.4S38.5,96.9,38.3,96.9z"></path>				</g>			</g>		</g>		<g>			<g>				<g>					<path class="st2" d="M41.5,116.1c-0.2,0-0.4-0.2-0.4-0.4V113c0-0.2,0.2-0.4,0.4-0.4s0.4,0.2,0.4,0.4v2.7      C41.9,115.9,41.7,116.1,41.5,116.1z"></path>				</g>			</g>			<g>				<g>					<path class="st2" d="M42.9,114.7h-2.7c-0.2,0-0.4-0.2-0.4-0.4s0.2-0.4,0.4-0.4h2.7c0.2,0,0.4,0.2,0.4,0.4      S43.1,114.7,42.9,114.7z"></path>				</g>			</g>		</g>	</g>	<g class="st1">		<g>			<g>				<path class="st2" d="M16.1,127.1C16.1,127.1,16.1,127.1,16.1,127.1l-4.6,0c-0.2,0-0.4-0.1-0.4-0.3l-0.5-1.8     c-0.6-0.2-1.3-0.5-1.9-0.8l-1.6,0.9c-0.2,0.1-0.4,0.1-0.5-0.1l-3.3-3.3c-0.1-0.1-0.2-0.4-0.1-0.5l0.9-1.6     c-0.3-0.6-0.6-1.2-0.8-1.9l-1.8-0.5c-0.2-0.1-0.3-0.2-0.3-0.4l0-4.6c0-0.2,0.1-0.4,0.3-0.4l1.8-0.5c0.2-0.6,0.5-1.3,0.8-1.9     l-0.9-1.6c-0.1-0.2-0.1-0.4,0.1-0.5l3.3-3.2c0.1-0.1,0.3-0.2,0.5-0.1l1.6,0.9c0.6-0.3,1.2-0.6,1.9-0.8l0.5-1.8     c0.1-0.2,0.2-0.3,0.4-0.3c0,0,0,0,0,0l4.6,0c0.2,0,0.4,0.1,0.4,0.3l0.5,1.8c0.6,0.2,1.3,0.5,1.9,0.8l1.6-0.9     c0.2-0.1,0.4-0.1,0.5,0.1l3.3,3.3c0.1,0.1,0.2,0.4,0.1,0.5l-0.9,1.6c0.3,0.6,0.6,1.2,0.8,1.9l1.8,0.5c0.2,0.1,0.3,0.2,0.3,0.4     l0,4.6c0,0.2-0.1,0.4-0.3,0.4l-1.8,0.5c-0.2,0.6-0.5,1.3-0.8,1.9l0.9,1.6c0.1,0.2,0.1,0.4-0.1,0.5l-3.3,3.3     c-0.1,0.1-0.4,0.2-0.5,0.1l-1.6-0.9c-0.6,0.3-1.2,0.6-1.9,0.8l-0.5,1.8C16.4,127,16.3,127.1,16.1,127.1z M11.8,126.2l4,0     l0.5-1.7c0-0.1,0.2-0.3,0.3-0.3c0.8-0.2,1.5-0.5,2.1-0.9c0.1-0.1,0.3-0.1,0.4,0l1.6,0.9l2.8-2.8l-0.9-1.6     c-0.1-0.1-0.1-0.3,0-0.4c0.4-0.7,0.7-1.4,0.9-2.1c0-0.1,0.2-0.3,0.3-0.3l1.7-0.5l0-4l-1.7-0.5c-0.1,0-0.3-0.2-0.3-0.3     c-0.2-0.7-0.5-1.5-0.9-2.1c-0.1-0.1-0.1-0.3,0-0.4l0.9-1.6l-2.8-2.8l-1.6,0.9c-0.1,0.1-0.3,0.1-0.4,0c-0.7-0.4-1.4-0.7-2.1-0.9     c-0.1,0-0.3-0.2-0.3-0.3l-0.5-1.7l-4,0l-0.5,1.7c0,0.1-0.2,0.3-0.3,0.3c-0.7,0.2-1.5,0.5-2.1,0.9c-0.1,0.1-0.3,0.1-0.4,0     L7,104.9l-2.8,2.8l0.9,1.6c0.1,0.1,0.1,0.3,0,0.4c-0.4,0.7-0.7,1.4-0.9,2.1c0,0.1-0.2,0.3-0.3,0.3l-1.7,0.5l0,4l1.7,0.5     c0.1,0,0.3,0.2,0.3,0.3c0.2,0.7,0.5,1.5,0.9,2.1c0.1,0.1,0.1,0.3,0,0.4l-0.9,1.6l2.8,2.8l1.6-0.9c0.1-0.1,0.3-0.1,0.4,0     c0.7,0.4,1.4,0.7,2.1,0.9c0.1,0,0.3,0.2,0.3,0.3L11.8,126.2z"></path>			</g>		</g>		<g>			<g>				<path class="st2" d="M13.8,120.9C13.8,120.9,13.8,120.9,13.8,120.9c-1.7,0-3.3-0.7-4.5-1.9c-1.2-1.2-1.9-2.8-1.9-4.5     c0-3.5,2.9-6.3,6.4-6.3c0,0,0,0,0,0c1.7,0,3.3,0.7,4.5,1.9c1.2,1.2,1.9,2.8,1.9,4.5C20.2,118.1,17.3,120.9,13.8,120.9z      M13.8,109.1c-3,0-5.5,2.5-5.5,5.5c0,1.5,0.6,2.9,1.6,3.9c1,1,2.4,1.6,3.9,1.6c0,0,0,0,0,0c3,0,5.5-2.5,5.5-5.5     c0-1.5-0.6-2.9-1.6-3.9C16.7,109.6,15.3,109.1,13.8,109.1C13.8,109.1,13.8,109.1,13.8,109.1z"></path>			</g>		</g>	</g>	<g class="st1">		<g>			<g>				<path class="st2" d="M13.8,117.9c-1.1,0-2.1-0.9-2.1-1.9c0-0.2,0.2-0.4,0.4-0.4c0.2,0,0.4,0.2,0.4,0.4c0,0.6,0.5,1,1.2,1     c0.7,0,1.2-0.5,1.2-1c0-0.6-0.5-1-1.2-1c-1.1,0-2.1-0.8-2.1-1.9c0-1,0.9-1.9,2.1-1.9c1.1,0,2.1,0.9,2.1,1.9     c0,0.2-0.2,0.4-0.4,0.4s-0.4-0.2-0.4-0.4c0-0.6-0.5-1-1.2-1c-0.7,0-1.2,0.5-1.2,1s0.5,1,1.2,1c1.1,0,2.1,0.9,2.1,1.9     C15.9,117.1,14.9,117.9,13.8,117.9z"></path>			</g>		</g>		<g>			<g>				<path class="st2" d="M13.8,112.1c-0.2,0-0.4-0.2-0.4-0.4v-1c0-0.2,0.2-0.4,0.4-0.4c0.2,0,0.4,0.2,0.4,0.4v1     C14.2,111.9,14,112.1,13.8,112.1z"></path>			</g>		</g>		<g>			<g>				<path class="st2" d="M13.8,118.9c-0.2,0-0.4-0.2-0.4-0.4v-1c0-0.2,0.2-0.4,0.4-0.4c0.2,0,0.4,0.2,0.4,0.4v1     C14.2,118.7,14,118.9,13.8,118.9z"></path>			</g>		</g>	</g>	<g class="st1">		<g>			<g>				<path class="st2" d="M116.3,127.1c-8.6,0-16.2-5.7-18.6-14c-0.5-1.8-0.8-3.6-0.8-5.4c0-1,0.1-1.9,0.2-2.9     c0.3-2.3,1.1-4.5,2.2-6.6c2.4-4.2,6.2-7.4,10.8-8.9c2-0.7,4.1-1,6.2-1c9.3,0,17.3,6.6,19,15.7c0,0.2-0.1,0.5-0.3,0.5     c-0.2,0-0.5-0.1-0.5-0.3c-1.7-8.7-9.3-15-18.2-15c-2,0-4,0.3-5.9,1c-4.4,1.5-8,4.5-10.3,8.5c-1.1,2-1.8,4.1-2.1,6.3     c-0.1,0.9-0.2,1.8-0.2,2.7c0,1.8,0.2,3.5,0.7,5.2c2.3,7.9,9.6,13.3,17.8,13.3c2.3,0,4.5-0.4,6.6-1.2c0.2-0.1,0.5,0,0.6,0.2     c0.1,0.2,0,0.5-0.2,0.6C120.9,126.7,118.6,127.1,116.3,127.1z"></path>			</g>		</g>		<g>			<g>				<path class="st2" d="M116.3,122.6c-8.2,0-14.9-6.7-14.9-14.9c0-8.2,6.7-14.9,14.9-14.9c6.8,0,12.7,4.6,14.4,11.1     c0.1,0.2-0.1,0.5-0.3,0.5c-0.2,0.1-0.5-0.1-0.5-0.3c-1.6-6.2-7.2-10.5-13.6-10.5c-7.7,0-14,6.3-14,14c0,7.7,6.3,14,14,14     c2.3,0,4.5-0.6,6.5-1.6c0.2-0.1,0.5,0,0.6,0.2c0.1,0.2,0,0.5-0.2,0.6C121.1,122,118.7,122.6,116.3,122.6z"></path>			</g>		</g>		<g>			<g>				<g>					<path class="st2" d="M116.3,99.3c-0.2,0-0.4-0.2-0.4-0.4v-2c0-0.2,0.2-0.4,0.4-0.4s0.4,0.2,0.4,0.4v2      C116.7,99.1,116.5,99.3,116.3,99.3z"></path>				</g>			</g>			<g>				<g>					<path class="st2" d="M116.3,119c-0.2,0-0.4-0.2-0.4-0.4v-2c0-0.2,0.2-0.4,0.4-0.4s0.4,0.2,0.4,0.4v2      C116.7,118.8,116.5,119,116.3,119z"></path>				</g>			</g>		</g>		<g>			<g>				<g>					<path class="st2" d="M110,101.9c-0.1,0-0.2,0-0.3-0.1l-1.4-1.4c-0.2-0.2-0.2-0.4,0-0.6c0.2-0.2,0.4-0.2,0.6,0l1.4,1.4      c0.2,0.2,0.2,0.4,0,0.6C110.2,101.8,110.1,101.9,110,101.9z"></path>				</g>			</g>		</g>		<g>			<g>				<g>					<path class="st2" d="M107.4,108.1h-2c-0.2,0-0.4-0.2-0.4-0.4s0.2-0.4,0.4-0.4h2c0.2,0,0.4,0.2,0.4,0.4S107.7,108.1,107.4,108.1      z"></path>				</g>			</g>		</g>		<g>			<g>				<g>					<path class="st2" d="M108.6,115.8c-0.1,0-0.2,0-0.3-0.1c-0.2-0.2-0.2-0.4,0-0.6l1.4-1.4c0.2-0.2,0.4-0.2,0.6,0      c0.2,0.2,0.2,0.4,0,0.6l-1.4,1.4C108.8,115.8,108.7,115.8,108.6,115.8z"></path>				</g>			</g>			<g>				<g>					<path class="st2" d="M122.5,101.9c-0.1,0-0.2,0-0.3-0.1c-0.2-0.2-0.2-0.4,0-0.6l1.4-1.4c0.2-0.2,0.4-0.2,0.6,0      c0.2,0.2,0.2,0.4,0,0.6l-1.4,1.4C122.7,101.8,122.6,101.9,122.5,101.9z"></path>				</g>			</g>		</g>		<g>			<g>				<g>					<path class="st2" d="M120.6,112.5c-0.1,0-0.2,0-0.3-0.1l-5.4-5.4c-0.2-0.2-0.2-0.4,0-0.6c0.2-0.2,0.4-0.2,0.6,0l5.4,5.4      c0.2,0.2,0.2,0.4,0,0.6C120.8,112.4,120.7,112.5,120.6,112.5z"></path>				</g>			</g>			<g>				<g>					<path class="st2" d="M115,109.4c-0.1,0-0.2,0-0.3-0.1c-0.2-0.2-0.2-0.4,0-0.6l5.7-5.7c0.2-0.2,0.4-0.2,0.6,0s0.2,0.4,0,0.6      l-5.7,5.7C115.2,109.4,115.1,109.4,115,109.4z"></path>				</g>			</g>		</g>	</g>	<g class="st1">		<g>			<g>				<path class="st2" d="M132.6,127.1H123c-0.2,0-0.4-0.2-0.4-0.4v-5.3c0-0.2,0.2-0.4,0.4-0.4h9.6c0.2,0,0.4,0.2,0.4,0.4v5.3     C133,126.9,132.9,127.1,132.6,127.1z M123.4,126.2h8.8v-4.4h-8.8V126.2z"></path>			</g>		</g>		<g>			<g>				<path class="st2" d="M148.3,127.1h-9.6c-0.2,0-0.4-0.2-0.4-0.4v-5.3c0-0.2,0.2-0.4,0.4-0.4h9.6c0.2,0,0.4,0.2,0.4,0.4v5.3     C148.8,126.9,148.6,127.1,148.3,127.1z M139.1,126.2h8.8v-4.4h-8.8V126.2z"></path>			</g>		</g>		<g>			<g>				<path class="st2" d="M132.6,124.5H123c-0.2,0-0.4-0.2-0.4-0.4v-2.6c0-0.2,0.2-0.4,0.4-0.4h9.6c0.2,0,0.4,0.2,0.4,0.4v2.6     C133,124.3,132.9,124.5,132.6,124.5z M123.4,123.6h8.8v-1.8h-8.8V123.6z"></path>			</g>		</g>		<g>			<g>				<path class="st2" d="M148.3,124.5h-9.6c-0.2,0-0.4-0.2-0.4-0.4v-2.6c0-0.2,0.2-0.4,0.4-0.4h9.6c0.2,0,0.4,0.2,0.4,0.4v2.6     C148.8,124.3,148.6,124.5,148.3,124.5z M139.1,123.6h8.8v-1.8h-8.8V123.6z"></path>			</g>		</g>		<g>			<g>				<path class="st2" d="M132.6,121.8H123c-0.2,0-0.4-0.2-0.4-0.4V104c0-0.2,0.2-0.4,0.4-0.4h9.6c0.2,0,0.4,0.2,0.4,0.4v17.4     C133,121.6,132.9,121.8,132.6,121.8z M123.4,121h8.8v-16.5h-8.8V121z"></path>			</g>		</g>		<g>			<g>				<path class="st2" d="M148.3,121.8h-9.6c-0.2,0-0.4-0.2-0.4-0.4V104c0-0.2,0.2-0.4,0.4-0.4h9.6c0.2,0,0.4,0.2,0.4,0.4v17.4     C148.8,121.6,148.6,121.8,148.3,121.8z M139.1,121h8.8v-16.5h-8.8V121z"></path>			</g>		</g>		<g>			<g>				<path class="st2" d="M132.6,119.1h-4.7c-0.2,0-0.4-0.2-0.4-0.4c0-1-0.8-1.8-1.8-1.8c-0.2,0-0.4-0.2-0.4-0.4V109     c0-0.2,0.2-0.4,0.4-0.4c1,0,1.8-0.8,1.8-1.8c0-0.2,0.2-0.4,0.4-0.4h4.7c0.2,0,0.4,0.2,0.4,0.4v11.9     C133,118.9,132.9,119.1,132.6,119.1z M128.3,118.2h3.9v-11h-3.9c-0.2,1.1-1.1,2-2.2,2.2v6.7     C127.3,116.2,128.1,117.1,128.3,118.2z"></path>			</g>		</g>		<g>			<g>				<path class="st2" d="M143.4,119.1h-4.7c-0.2,0-0.4-0.2-0.4-0.4v-11.9c0-0.2,0.2-0.4,0.4-0.4h4.7c0.2,0,0.4,0.2,0.4,0.4     c0,1,0.8,1.8,1.8,1.8c0.2,0,0.4,0.2,0.4,0.4v7.5c0,0.2-0.2,0.4-0.4,0.4c-1,0-1.8,0.8-1.8,1.8     C143.8,118.9,143.6,119.1,143.4,119.1z M139.1,118.2h3.9c0.2-1.1,1.1-2,2.2-2.2v-6.7c-1.1-0.2-2-1.1-2.2-2.2h-3.9V118.2z"></path>			</g>		</g>		<g>			<g>				<path class="st2" d="M138.7,127.1h-6.1c-0.2,0-0.4-0.2-0.4-0.4V104c0-0.2,0.2-0.4,0.4-0.4h6.1c0.2,0,0.4,0.2,0.4,0.4v22.6     C139.1,126.9,138.9,127.1,138.7,127.1z M133,126.2h5.2v-21.8H133V126.2z"></path>			</g>		</g>	</g>	<g class="st1">		<g>			<g>				<path class="st2" d="M138.7,94.4c-4.3,0-7.8-3.5-7.8-7.8c0-4.3,3.5-7.8,7.8-7.8c4.3,0,7.8,3.5,7.8,7.8     C146.5,90.9,143,94.4,138.7,94.4z M138.7,79.6c-3.8,0-7,3.1-7,7c0,3.8,3.1,7,7,7c3.8,0,7-3.1,7-7     C145.6,82.7,142.5,79.6,138.7,79.6z"></path>			</g>		</g>		<g>			<g>				<path class="st2" d="M136,89.6c-0.1,0-0.2,0-0.3-0.1c-0.2-0.2-0.2-0.4,0-0.6l5.3-5.3c0.2-0.2,0.4-0.2,0.6,0     c0.2,0.2,0.2,0.4,0,0.6l-5.3,5.3C136.3,89.6,136.1,89.6,136,89.6z"></path>			</g>		</g>		<g>			<g>				<g>					<path class="st2" d="M140.8,90.6c-0.5,0-1-0.2-1.4-0.6c-0.4-0.4-0.6-0.9-0.6-1.4c0-0.5,0.2-1,0.6-1.4c0.4-0.4,0.9-0.6,1.4-0.6      c0,0,0,0,0,0c0.5,0,1,0.2,1.4,0.6c0.8,0.8,0.8,2,0,2.8C141.8,90.4,141.3,90.6,140.8,90.6C140.8,90.6,140.8,90.6,140.8,90.6z       M140.8,87.6C140.8,87.6,140.8,87.6,140.8,87.6c-0.3,0-0.6,0.1-0.8,0.3c-0.2,0.2-0.3,0.5-0.3,0.8c0,0.3,0.1,0.6,0.3,0.8      c0.2,0.2,0.5,0.3,0.8,0.3c0,0,0,0,0,0c0.3,0,0.6-0.1,0.8-0.3c0.4-0.4,0.4-1.1,0-1.5C141.4,87.7,141.1,87.6,140.8,87.6z"></path>				</g>			</g>			<g>				<g>					<path class="st2" d="M136.6,86.4c-0.5,0-1-0.2-1.4-0.6c-0.4-0.4-0.6-0.9-0.6-1.4c0-0.5,0.2-1,0.6-1.4c0.8-0.8,2-0.8,2.8,0      c0.4,0.4,0.6,0.9,0.6,1.4c0,0.5-0.2,1-0.6,1.4l0,0l0,0l0,0C137.6,86.2,137.1,86.4,136.6,86.4C136.6,86.4,136.6,86.4,136.6,86.4      z M136.6,83.3c-0.3,0-0.6,0.1-0.8,0.3c-0.2,0.2-0.3,0.5-0.3,0.8c0,0.3,0.1,0.6,0.3,0.8c0.2,0.2,0.5,0.3,0.8,0.3c0,0,0,0,0,0      c0.3,0,0.6-0.1,0.8-0.3l0,0c0.2-0.2,0.3-0.5,0.3-0.8c0-0.3-0.1-0.6-0.3-0.8C137.1,83.4,136.8,83.3,136.6,83.3z"></path>				</g>			</g>		</g>	</g>	<g class="st1">		<g>			<g>				<g>					<g>						<path class="st2" d="M81.6,37.4c-0.2,0-0.4,0-0.7-0.1c-1.4-0.3-2.5-1.4-2.7-2.7c-0.2-1.2,0.1-2.3,1-3.1c0.8-0.8,2-1.2,3.1-0.9       c1.4,0.3,2.5,1.3,2.7,2.7l0,0c0.2,1.1-0.1,2.3-0.9,3.1C83.4,37.1,82.5,37.4,81.6,37.4z M81.6,31.4c-0.7,0-1.3,0.3-1.8,0.7       c-0.6,0.6-0.9,1.5-0.7,2.4c0.2,1,1,1.9,2,2.1c0.9,0.2,1.8-0.1,2.4-0.7c0.6-0.6,0.9-1.5,0.7-2.4c0,0,0,0,0,0c-0.2-1-1-1.8-2-2       C81.9,31.4,81.8,31.4,81.6,31.4z"></path>					</g>				</g>			</g>			<g>				<g>					<g>						<path class="st2" d="M81.6,37.4c-0.2,0-0.4,0-0.7-0.1c-1.4-0.3-2.5-1.4-2.7-2.7c-0.2-1.2,0.1-2.3,1-3.1c0.8-0.8,2-1.2,3.1-0.9       c1.4,0.3,2.5,1.3,2.7,2.7l0,0c0.2,1.1-0.1,2.3-0.9,3.1C83.4,37.1,82.5,37.4,81.6,37.4z M81.6,31.4c-0.7,0-1.3,0.3-1.8,0.7       c-0.6,0.6-0.9,1.5-0.7,2.4c0.2,1,1,1.9,2,2.1c0.9,0.2,1.8-0.1,2.4-0.7c0.6-0.6,0.9-1.5,0.7-2.4c0,0,0,0,0,0c-0.2-1-1-1.8-2-2       C81.9,31.4,81.8,31.4,81.6,31.4z"></path>					</g>				</g>			</g>		</g>		<g>			<g>				<g>					<path class="st2" d="M87.1,44H81c-0.1,0-0.2-0.1-0.3-0.1c-0.1-0.1-0.1-0.2-0.1-0.3c0-1.7-0.7-3.2-2-4.3      c-0.1-0.1-0.2-0.2-0.1-0.4c0-0.1,0.1-0.3,0.2-0.3c0.9-0.6,2-0.9,3.1-0.9c3.2,0,5.8,2.6,5.8,5.8c0,0,0,0.1,0,0.2      C87.5,43.9,87.4,44,87.1,44z M81.5,43.2h5.2c-0.2-2.6-2.3-4.6-4.9-4.6c-0.7,0-1.4,0.2-2.1,0.5C80.7,40.1,81.4,41.6,81.5,43.2z"></path>				</g>			</g>		</g>		<g>			<g>				<g>					<path class="st2" d="M87.1,44H81c-0.1,0-0.2-0.1-0.3-0.1c-0.1-0.1-0.1-0.2-0.1-0.3c0-1.7-0.7-3.2-2-4.3      c-0.1-0.1-0.2-0.2-0.1-0.4c0-0.1,0.1-0.3,0.2-0.3c0.9-0.6,2-0.9,3.1-0.9c3.2,0,5.8,2.6,5.8,5.8c0,0,0,0.1,0,0.2      C87.5,43.9,87.4,44,87.1,44z M81.5,43.2h5.2c-0.2-2.6-2.3-4.6-4.9-4.6c-0.7,0-1.4,0.2-2.1,0.5C80.7,40.1,81.4,41.6,81.5,43.2z"></path>				</g>			</g>		</g>		<g>			<g>				<g>					<g>						<path class="st2" d="M68.1,37.4c-0.2,0-0.4,0-0.7-0.1c-1.4-0.3-2.5-1.4-2.7-2.7c-0.2-1.2,0.1-2.3,1-3.1c0.8-0.8,2-1.2,3.1-0.9       c1.4,0.3,2.5,1.3,2.7,2.7c0.2,1.1-0.1,2.3-0.9,3.1C69.9,37.1,69,37.4,68.1,37.4z M68.1,31.4c-0.7,0-1.3,0.3-1.8,0.8       c-0.6,0.6-0.9,1.5-0.7,2.4c0.2,1,1,1.9,2,2.1c0.9,0.2,1.8-0.1,2.4-0.7c0.6-0.6,0.9-1.5,0.7-2.4c0,0,0,0,0,0c-0.2-1-1-1.8-2-2       C68.4,31.4,68.3,31.4,68.1,31.4z"></path>					</g>				</g>			</g>			<g>				<g>					<g>						<path class="st2" d="M68.1,37.4c-0.2,0-0.4,0-0.7-0.1c-1.4-0.3-2.5-1.4-2.7-2.7c-0.2-1.2,0.1-2.3,1-3.1c0.8-0.8,2-1.2,3.1-0.9       c1.4,0.3,2.5,1.3,2.7,2.7c0.2,1.1-0.1,2.3-0.9,3.1C69.9,37.1,69,37.4,68.1,37.4z M68.1,31.4c-0.7,0-1.3,0.3-1.8,0.8       c-0.6,0.6-0.9,1.5-0.7,2.4c0.2,1,1,1.9,2,2.1c0.9,0.2,1.8-0.1,2.4-0.7c0.6-0.6,0.9-1.5,0.7-2.4c0,0,0,0,0,0c-0.2-1-1-1.8-2-2       C68.4,31.4,68.3,31.4,68.1,31.4z"></path>					</g>				</g>			</g>		</g>		<g>			<g>				<g>					<path class="st2" d="M69,44h-6.1c-0.2,0-0.4-0.2-0.4-0.4c0-0.1,0-0.1,0-0.2c0-3.2,2.6-5.8,5.8-5.8c1.1,0,2.1,0.3,3.1,0.9      c0.1,0.1,0.2,0.2,0.2,0.3c0,0.1,0,0.3-0.1,0.4c-1.2,1.1-2,2.6-2,4.3c0,0,0,0,0,0c0,0.1,0,0.2-0.1,0.3C69.2,44,69.1,44,69,44z       M63.3,43.2h5.2c0.1-1.6,0.7-3,1.8-4.2c-0.7-0.3-1.4-0.5-2.1-0.5C65.6,38.5,63.5,40.6,63.3,43.2z"></path>				</g>			</g>		</g>		<g>			<g>				<g>					<path class="st2" d="M69,44h-6.1c-0.2,0-0.4-0.2-0.4-0.4c0-0.1,0-0.1,0-0.2c0-3.2,2.6-5.8,5.8-5.8c1.1,0,2.1,0.3,3.1,0.9      c0.1,0.1,0.2,0.2,0.2,0.3c0,0.1,0,0.3-0.1,0.4c-1.2,1.1-2,2.6-2,4.3c0,0,0,0,0,0c0,0.1,0,0.2-0.1,0.3C69.2,44,69.1,44,69,44z       M63.3,43.2h5.2c0.1-1.6,0.7-3,1.8-4.2c-0.7-0.3-1.4-0.5-2.1-0.5C65.6,38.5,63.5,40.6,63.3,43.2z"></path>				</g>			</g>		</g>		<g>			<g>				<g>					<path class="st2" d="M74.8,36.6c-0.2,0-0.5,0-0.7-0.1c-1.5-0.3-2.7-1.5-3-3c-0.2-1.3,0.2-2.6,1.1-3.5c0.9-0.9,2.2-1.3,3.4-1      c1.5,0.3,2.7,1.5,3,3l0,0c0.2,1.3-0.1,2.6-1,3.5C76.8,36.2,75.8,36.6,74.8,36.6z M74.8,29.8c-0.8,0-1.5,0.3-2.1,0.9      c-0.7,0.7-1,1.7-0.8,2.7c0.2,1.2,1.2,2.1,2.3,2.3c1,0.2,2-0.1,2.7-0.8c0.7-0.7,1-1.7,0.8-2.7l0,0c-0.2-1.1-1.2-2.1-2.3-2.3      C75.2,29.9,75,29.8,74.8,29.8z"></path>				</g>			</g>		</g>		<g>			<g>				<g>					<path class="st2" d="M74.8,36.6c-0.2,0-0.5,0-0.7-0.1c-1.5-0.3-2.7-1.5-3-3c-0.2-1.3,0.2-2.6,1.1-3.5c0.9-0.9,2.2-1.3,3.4-1      c1.5,0.3,2.7,1.5,3,3l0,0c0.2,1.3-0.1,2.6-1,3.5C76.8,36.2,75.8,36.6,74.8,36.6z M74.8,29.8c-0.8,0-1.5,0.3-2.1,0.9      c-0.7,0.7-1,1.7-0.8,2.7c0.2,1.2,1.2,2.1,2.3,2.3c1,0.2,2-0.1,2.7-0.8c0.7-0.7,1-1.7,0.8-2.7l0,0c-0.2-1.1-1.2-2.1-2.3-2.3      C75.2,29.9,75,29.8,74.8,29.8z"></path>				</g>			</g>		</g>		<g>			<g>				<path class="st2" d="M81,44H69c-0.2,0-0.4-0.2-0.4-0.4c0-0.1,0-0.1,0-0.2c0-1.9,0.8-3.7,2.3-4.9c1.2-1,2.7-1.6,4.2-1.6     c1.5,0,3,0.6,4.2,1.6c1.4,1.2,2.3,3,2.3,4.9c0,0.1,0,0.1,0,0.2C81.4,43.9,81.2,44,81,44z M69.4,43.2h11.2     c-0.1-1.5-0.8-2.9-1.9-3.9c-1-0.9-2.3-1.4-3.7-1.4c-1.3,0-2.6,0.5-3.6,1.4C70.2,40.2,69.5,41.6,69.4,43.2z"></path>			</g>		</g>	</g></g><g class="st0">	<g class="st1">		<g>			<path class="st2" d="M128.8,134H21.9c-0.1,0-0.3,0-0.4,0l-9.9-2.3c-5.6-0.6-7.7-1.5-7.7-3.3V122c0-0.9,0.8-1.7,1.7-1.7h139    c0.9,0,1.7,0.8,1.7,1.7v6.3c0,0.4,0,0.8-0.2,1.1c-0.6,1-2,1.8-7,2.3l-9.9,2.3C129,134,128.9,134,128.8,134z M22.1,130.6h106.4    l9.9-2.3c0.1,0,0.1,0,0.2,0c2.5-0.2,3.7-0.5,4.3-0.7v-4H7.3v3.9c0.6,0.2,2,0.6,4.8,0.8c0.1,0,0.1,0,0.2,0L22.1,130.6z M143,129    c0,0.1,0,0.1,0.1,0.2C143.1,129.1,143,129,143,129z"></path>		</g>		<g>			<g>				<path class="st2" d="M140.1,65.9c-2.6,0-5-1.3-6.5-3.2c-1.5,2-3.9,3.2-6.5,3.2c-2.6,0-5-1.3-6.5-3.2c-1.5,2-3.9,3.2-6.5,3.2     c-2.6,0-5-1.3-6.5-3.2c-1.5,2-3.9,3.2-6.5,3.2c-2.6,0-5-1.3-6.5-3.2c-1.5,2-3.9,3.2-6.6,3.2c-2.6,0-5-1.3-6.5-3.2     c-1.5,2-3.9,3.2-6.5,3.2c0,0,0,0,0,0c-2.7,0-5-1.3-6.5-3.2c-1.5,2-3.9,3.2-6.5,3.2c-2.6,0-5-1.3-6.6-3.2c-1.5,2-3.9,3.2-6.5,3.2     c-2.7,0-5-1.3-6.5-3.2c-1.5,2-3.9,3.2-6.5,3.2c-2.7,0-5-1.3-6.5-3.2c-1.5,2-3.9,3.2-6.5,3.2c-2.7,0-5-1.3-6.5-3.2     c-1.5,2-3.9,3.2-6.5,3.2c-4.5,0-8.2-3.7-8.2-8.2c0-0.2,0-0.4,0-0.5l0,0v-4.6c0-0.4,0.1-0.7,0.3-1l26-34.9     c0.3-0.4,0.8-0.7,1.4-0.7h91.3c0.5,0,1,0.3,1.4,0.7l26,34.9c0.2,0.3,0.3,0.6,0.3,1l0,4.6c0,0.1,0,0.3,0,0.5     C148.3,62.2,144.6,65.9,140.1,65.9z M135.3,57.6c0,0.1,0.1,0.2,0.1,0.4c0.1,2.5,2.2,4.5,4.8,4.5c2.7,0,4.8-2.2,4.8-4.8l0,0     c0-0.1,0-0.2,0-0.3c0,0,0-0.1,0-0.1v-4.1l-25.1-33.8H30.2L5.1,53.2v4.1c0,0,0,0.1,0,0.1c0,0.1,0,0.2,0,0.3l0,0.1     c0,2.6,2.2,4.8,4.8,4.8c2.5,0,4.6-2,4.8-4.5c0-0.1,0-0.2,0.1-0.4c0-0.9,0.8-1.6,1.7-1.6c0.9,0,1.7,0.8,1.7,1.7     c0,2.7,2.2,4.8,4.8,4.8c2.5,0,4.6-2,4.8-4.5c0-0.1,0-0.2,0.1-0.4c0-0.9,0.8-1.6,1.7-1.6c0.9,0,1.7,0.8,1.7,1.7     c0,2.7,2.2,4.8,4.8,4.8c2.5,0,4.6-2,4.8-4.5c0-0.1,0-0.2,0.1-0.4c0-0.9,0.8-1.6,1.7-1.6c0.9,0,1.7,0.8,1.7,1.7     c0,2.7,2.2,4.8,4.8,4.8c2.5,0,4.6-1.9,4.8-4.4c0.1-0.9,0.8-1.5,1.7-1.6c0,0,0,0,0,0c0.9,0,1.6,0.7,1.7,1.5     c0.2,2.5,2.4,4.4,4.9,4.4c2.5,0,4.6-2,4.8-4.5c0-0.1,0-0.2,0.1-0.4c0-0.9,0.8-1.6,1.7-1.6c0.9,0,1.7,0.8,1.7,1.7     c0,2.6,2.1,4.8,4.8,4.8c0,0,0.1,0,0.1,0c2.6,0,4.8-2.2,4.8-4.8c0-0.9,0.8-1.7,1.7-1.7c0.9,0,1.6,0.7,1.7,1.6     c0,0.1,0.1,0.2,0.1,0.4c0.1,2.5,2.2,4.5,4.8,4.5c2.5,0,4.7-2,4.9-4.4c0.1-0.9,0.8-1.5,1.7-1.5c0,0,0,0,0,0     c0.9,0,1.6,0.7,1.7,1.6c0.2,2.5,2.2,4.4,4.8,4.4c2.7,0,4.8-2.2,4.8-4.8c0-0.9,0.8-1.7,1.7-1.7c0.9,0,1.6,0.7,1.7,1.6     c0,0.1,0.1,0.2,0.1,0.4c0.1,2.5,2.2,4.5,4.8,4.5c2.7,0,4.8-2.2,4.8-4.8c0-0.9,0.8-1.7,1.7-1.7c0.9,0,1.6,0.7,1.7,1.6     c0,0.1,0.1,0.2,0.1,0.4c0.1,2.5,2.2,4.5,4.8,4.5c2.7,0,4.8-2.2,4.8-4.8c0-0.9,0.8-1.7,1.7-1.7C134.5,56,135.2,56.7,135.3,57.6z"></path>			</g>			<g>				<path class="st2" d="M120.3,19.4h-91c-0.9,0-1.7-0.8-1.7-1.7c0-0.9,0.8-1.7,1.7-1.7h91c0.9,0,1.7,0.8,1.7,1.7     C122,18.6,121.3,19.4,120.3,19.4z"></path>			</g>		</g>		<g>			<path class="st2" d="M120.1,113.5H29.9c-0.9,0-1.7-0.8-1.7-1.7V60.3c0-0.9,0.8-1.7,1.7-1.7c0.9,0,1.7,0.8,1.7,1.7v49.9h86.7V60.3    c0-0.9,0.8-1.7,1.7-1.7c0.9,0,1.7,0.8,1.7,1.7v51.6C121.7,112.8,121,113.5,120.1,113.5z"></path>		</g>		<g>			<path class="st2" d="M130,123.6c-0.9,0-1.7-0.8-1.7-1.7V63.5c0-0.9,0.8-1.7,1.7-1.7s1.7,0.8,1.7,1.7v58.4    C131.7,122.9,131,123.6,130,123.6z"></path>		</g>		<g>			<path class="st2" d="M20,123.6c-0.9,0-1.7-0.8-1.7-1.7V63.5c0-0.9,0.8-1.7,1.7-1.7c0.9,0,1.7,0.8,1.7,1.7v58.4    C21.7,122.9,20.9,123.6,20,123.6z"></path>		</g>		<g>			<g>				<g>					<path class="st2" d="M73.6,104.6c-3.6,0-6.4-2.9-6.4-6.4s2.9-6.4,6.4-6.4c3.6,0,6.4,2.9,6.4,6.4S77.1,104.6,73.6,104.6z       M73.6,95.1c-1.7,0-3.1,1.4-3.1,3.1s1.4,3.1,3.1,3.1c1.7,0,3.1-1.4,3.1-3.1S75.3,95.1,73.6,95.1z"></path>				</g>				<g>					<path class="st2" d="M92.5,104.6c-3.6,0-6.4-2.9-6.4-6.4s2.9-6.4,6.4-6.4c3.6,0,6.4,2.9,6.4,6.4S96,104.6,92.5,104.6z       M92.5,95.1c-1.7,0-3.1,1.4-3.1,3.1s1.4,3.1,3.1,3.1c1.7,0,3.1-1.4,3.1-3.1S94.2,95.1,92.5,95.1z"></path>				</g>				<g>					<path class="st2" d="M92.5,95.1c-0.2,0-0.4,0-0.6-0.1c-0.9-0.3-1.3-1.3-1-2.2l6.4-16.4l-34.9,0.1c0,0,0,0,0,0      c-0.9,0-1.7-0.8-1.7-1.7c0-0.9,0.7-1.7,1.7-1.7L99.8,73c0,0,0,0,0,0c0.6,0,1.1,0.3,1.4,0.7c0.3,0.5,0.4,1,0.2,1.6L94.1,94      C93.8,94.6,93.2,95.1,92.5,95.1z"></path>				</g>			</g>			<g>				<path class="st2" d="M93.4,95.1H69.7c-0.7,0-1.3-0.4-1.6-1.1l-8.4-21.2c-0.1-0.3-0.3-0.4-0.6-0.4h-8.9c-0.9,0-1.7-0.8-1.7-1.7     c0-0.9,0.8-1.7,1.7-1.7h8.9c1.7,0,3.1,1,3.8,2.6l8,20.1h22.5c0.9,0,1.7,0.8,1.7,1.7C95,94.3,94.3,95.1,93.4,95.1z"></path>			</g>		</g>	</g>	<g class="st1">		<path class="st2" d="M16.3,53.4c-0.3,0-0.6-0.1-0.9-0.3c-0.8-0.5-1-1.5-0.5-2.3l21-34c0.5-0.8,1.5-1,2.3-0.5   c0.8,0.5,1,1.5,0.5,2.3l-21,34C17.4,53.1,16.9,53.4,16.3,53.4z"></path>	</g>	<g class="st1">		<path class="st2" d="M29.4,53.8c-0.2,0-0.5,0-0.7-0.1c-0.8-0.4-1.2-1.4-0.9-2.2L43.2,17c0.4-0.8,1.4-1.2,2.2-0.9   c0.8,0.4,1.2,1.4,0.9,2.2L31,52.8C30.7,53.4,30.1,53.8,29.4,53.8z"></path>	</g>	<g class="st1">		<path class="st2" d="M43.1,53.4c-0.1,0-0.3,0-0.4-0.1c-0.9-0.2-1.4-1.2-1.2-2.1l8.9-34c0.2-0.9,1.2-1.4,2.1-1.2   c0.9,0.2,1.4,1.2,1.2,2.1l-8.9,34C44.6,52.9,43.9,53.4,43.1,53.4z"></path>	</g>	<g class="st1">		<path class="st2" d="M55.8,53.8c-0.1,0-0.2,0-0.2,0c-0.9-0.1-1.6-1-1.4-1.9L59,17.4c0.1-0.9,1-1.6,1.9-1.4c0.9,0.1,1.6,1,1.4,1.9   l-4.9,34.4C57.3,53.2,56.6,53.8,55.8,53.8z"></path>	</g>	<g class="st1">		<path class="st2" d="M132.5,53.8c-0.6,0-1.2-0.3-1.5-0.9l-19.6-34.4c-0.5-0.8-0.2-1.8,0.6-2.3c0.8-0.5,1.8-0.2,2.3,0.6L134,51.3   c0.5,0.8,0.2,1.8-0.6,2.3C133.1,53.7,132.8,53.8,132.5,53.8z"></path>	</g>	<g class="st1">		<path class="st2" d="M119.2,54.3c-0.7,0-1.3-0.4-1.6-1.1l-13.9-34.9c-0.3-0.9,0.1-1.8,0.9-2.2c0.9-0.3,1.8,0.1,2.2,0.9L120.8,52   c0.3,0.9-0.1,1.8-0.9,2.2C119.6,54.2,119.4,54.3,119.2,54.3z"></path>	</g>	<g class="st1">		<path class="st2" d="M107.6,53.8c-0.7,0-1.4-0.5-1.6-1.2L95.5,18.2c-0.3-0.9,0.2-1.8,1.1-2.1c0.9-0.3,1.8,0.2,2.1,1.1l10.5,34.4   c0.3,0.9-0.2,1.8-1.1,2.1C107.9,53.8,107.8,53.8,107.6,53.8z"></path>	</g>	<g class="st1">		<path class="st2" d="M94.3,54.3c-0.8,0-1.5-0.6-1.7-1.4L86.8,18c-0.2-0.9,0.5-1.8,1.4-1.9c0.9-0.2,1.8,0.5,1.9,1.4l5.8,34.9   c0.2,0.9-0.5,1.8-1.4,1.9C94.5,54.3,94.4,54.3,94.3,54.3z"></path>	</g>	<g class="st1">		<path class="st2" d="M81.1,54.3c-0.9,0-1.6-0.7-1.7-1.6l-2.8-34.9c-0.1-0.9,0.6-1.7,1.5-1.8c0.9-0.1,1.7,0.6,1.8,1.5l2.8,34.9   c0.1,0.9-0.6,1.7-1.5,1.8C81.2,54.3,81.2,54.3,81.1,54.3z"></path>	</g>	<g class="st1">		<path class="st2" d="M68.5,54.3C68.5,54.3,68.5,54.3,68.5,54.3c-1,0-1.7-0.8-1.7-1.7l0.8-34.9c0-0.9,0.8-1.7,1.7-1.6   c0.9,0,1.7,0.8,1.6,1.7l-0.8,34.9C70.1,53.6,69.4,54.3,68.5,54.3z"></path>	</g>	<g class="st1">		<path class="st2" d="M146.6,54.3H3.4c-0.9,0-1.7-0.8-1.7-1.7s0.8-1.7,1.7-1.7h143.2c0.9,0,1.7,0.8,1.7,1.7S147.6,54.3,146.6,54.3z   "></path>	</g>	<g class="st1">		<path class="st2" d="M16.3,59.7c-0.9,0-1.7-0.8-1.7-1.7v-5.5c0-0.9,0.8-1.7,1.7-1.7c0.9,0,1.7,0.8,1.7,1.7v5.5   C18,59,17.3,59.7,16.3,59.7z"></path>	</g>	<g class="st1">		<path class="st2" d="M29.4,59.4c-0.9,0-1.7-0.8-1.7-1.7v-5.1c0-0.9,0.8-1.7,1.7-1.7s1.7,0.8,1.7,1.7v5.1   C31.1,58.6,30.3,59.4,29.4,59.4z"></path>	</g>	<g class="st1">		<path class="st2" d="M42.4,59.4c-0.9,0-1.7-0.8-1.7-1.7v-5.1c0-0.9,0.8-1.7,1.7-1.7s1.7,0.8,1.7,1.7v5.1   C44.1,58.6,43.4,59.4,42.4,59.4z"></path>	</g>	<g class="st1">		<path class="st2" d="M55.4,59.9c-0.9,0-1.7-0.8-1.7-1.7v-4.8c0-0.9,0.8-1.7,1.7-1.7s1.7,0.8,1.7,1.7v4.8   C57.1,59.1,56.3,59.9,55.4,59.9z"></path>	</g>	<g class="st1">		<path class="st2" d="M68.5,59.4c-0.9,0-1.7-0.8-1.7-1.7v-4.3c0-0.9,0.8-1.7,1.7-1.7c0.9,0,1.7,0.8,1.7,1.7v4.3   C70.2,58.6,69.4,59.4,68.5,59.4z"></path>	</g>	<g class="st1">		<path class="st2" d="M81.5,59.4c-0.9,0-1.7-0.8-1.7-1.7v-4.3c0-0.9,0.8-1.7,1.7-1.7c0.9,0,1.7,0.8,1.7,1.7v4.3   C83.2,58.6,82.4,59.4,81.5,59.4z"></path>	</g>	<g class="st1">		<path class="st2" d="M94.6,59.9c-0.9,0-1.7-0.8-1.7-1.7v-4.8c0-0.9,0.8-1.7,1.7-1.7c0.9,0,1.7,0.8,1.7,1.7v4.8   C96.3,59.1,95.5,59.9,94.6,59.9z"></path>	</g>	<g class="st1">		<path class="st2" d="M107.6,59.7c-0.9,0-1.7-0.8-1.7-1.7v-4.6c0-0.9,0.8-1.7,1.7-1.7c0.9,0,1.7,0.8,1.7,1.7v4.6   C109.3,59,108.5,59.7,107.6,59.7z"></path>	</g>	<g class="st1">		<path class="st2" d="M120.6,59.4c-0.9,0-1.7-0.8-1.7-1.7v-4.3c0-0.9,0.8-1.7,1.7-1.7c0.9,0,1.7,0.8,1.7,1.7v4.3   C122.3,58.6,121.5,59.4,120.6,59.4z"></path>	</g>	<g class="st1">		<path class="st2" d="M133.6,59.4c-0.9,0-1.7-0.8-1.7-1.7v-4.3c0-0.9,0.8-1.7,1.7-1.7c0.9,0,1.7,0.8,1.7,1.7v4.3   C135.3,58.6,134.5,59.4,133.6,59.4z"></path>	</g></g><g class="st0">	<path class="st3" d="M108,22.4V4.3c0-1.3-1-2.3-2.3-2.3H44.3C43.1,2,42,3,42,4.3v18.1c-7.4,0.2-13.3,6.3-13.3,13.8v109.5  c0,1.3,1,2.3,2.3,2.3h24.9h38.2H119c1.3,0,2.3-1,2.3-2.3V36.2C121.3,28.7,115.4,22.7,108,22.4z M116.7,143.4H96.4v-24.3h3.7  c1.3,0,2.3-1,2.3-2.3v-7c0-1.3-1-2.3-2.3-2.3H49.9c-1.3,0-2.3,1-2.3,2.3v7c0,1.3,1,2.3,2.3,2.3h3.7v24.3H33.3V36.2  c0-4.9,3.9-8.9,8.7-9.2c0.2,0,0.3,0,0.5,0h1.8h61.3h1.8c0.2,0,0.3,0,0.5,0c4.9,0.2,8.7,4.3,8.7,9.2V143.4z M77.3,143.4v-24.3h14.5  v24.3H77.3z M72.7,143.4H58.2v-24.3h14.5V143.4z M96.1,112.1h1.7v2.4h-1.4h-2.3H77.3H75h-2.3H55.9h-2.3h-1.4v-2.4h1.7H96.1z   M46.6,6.6h56.7v15.8H46.6V6.6z"></path>	<path class="st3" d="M57,41.1H41.8c-1.3,0-2.3,1-2.3,2.3v12.1c0,1.3,1,2.3,2.3,2.3H57c1.3,0,2.3-1,2.3-2.3V43.4  C59.3,42.1,58.3,41.1,57,41.1z M54.7,53.2H44.1v-7.5h10.6V53.2z"></path>	<path class="st3" d="M82.9,41.1H67.7c-1.3,0-2.3,1-2.3,2.3v12.1c0,1.3,1,2.3,2.3,2.3h15.3c1.3,0,2.3-1,2.3-2.3V43.4  C85.2,42.1,84.2,41.1,82.9,41.1z M80.6,53.2H70v-7.5h10.6V53.2z"></path>	<path class="st3" d="M108.2,41.1H93c-1.3,0-2.3,1-2.3,2.3v12.1c0,1.3,1,2.3,2.3,2.3h15.3c1.3,0,2.3-1,2.3-2.3V43.4  C110.5,42.1,109.5,41.1,108.2,41.1z M105.9,53.2H95.3v-7.5h10.6V53.2z"></path>	<path class="st3" d="M57,63.3H41.8c-1.3,0-2.3,1-2.3,2.3v12.1c0,1.3,1,2.3,2.3,2.3H57c1.3,0,2.3-1,2.3-2.3V65.6  C59.3,64.4,58.3,63.3,57,63.3z M54.7,75.4H44.1v-7.5h10.6V75.4z"></path>	<path class="st3" d="M82.9,63.3H67.7c-1.3,0-2.3,1-2.3,2.3v12.1c0,1.3,1,2.3,2.3,2.3h15.3c1.3,0,2.3-1,2.3-2.3V65.6  C85.2,64.4,84.2,63.3,82.9,63.3z M80.6,75.4H70v-7.5h10.6V75.4z"></path>	<path class="st3" d="M108.2,63.3H93c-1.3,0-2.3,1-2.3,2.3v12.1c0,1.3,1,2.3,2.3,2.3h15.3c1.3,0,2.3-1,2.3-2.3V65.6  C110.5,64.4,109.5,63.3,108.2,63.3z M105.9,75.4H95.3v-7.5h10.6V75.4z"></path>	<path class="st3" d="M57,85.6H41.8c-1.3,0-2.3,1-2.3,2.3V100c0,1.3,1,2.3,2.3,2.3H57c1.3,0,2.3-1,2.3-2.3V87.9  C59.3,86.6,58.3,85.6,57,85.6z M54.7,97.7H44.1v-7.5h10.6V97.7z"></path>	<path class="st3" d="M82.9,85.6H67.7c-1.3,0-2.3,1-2.3,2.3V100c0,1.3,1,2.3,2.3,2.3h15.3c1.3,0,2.3-1,2.3-2.3V87.9  C85.2,86.6,84.2,85.6,82.9,85.6z M80.6,97.7H70v-7.5h10.6V97.7z"></path>	<path class="st3" d="M108.2,85.6H93c-1.3,0-2.3,1-2.3,2.3V100c0,1.3,1,2.3,2.3,2.3h15.3c1.3,0,2.3-1,2.3-2.3V87.9  C110.5,86.6,109.5,85.6,108.2,85.6z M105.9,97.7H95.3v-7.5h10.6V97.7z"></path>	<polygon class="st3" points="58.1,12.8 54.3,12.8 54.3,8.9 52.1,8.9 52.1,19.2 54.3,19.2 54.3,14.8 58.1,14.8 58.1,19.2 60.4,19.2   60.4,8.9 58.1,8.9  "></polygon>	<path class="st3" d="M67.5,8.7c-3,0-5,2.2-5,5.4c0,3.1,2,5.2,4.9,5.2c2.5,0,5-1.7,5-5.4C72.4,10.9,70.4,8.7,67.5,8.7z M67.4,17.4  c-1.8,0-2.7-1.7-2.7-3.3c0-1.6,0.7-3.4,2.7-3.4c1.8,0,2.7,1.7,2.7,3.3C70.1,15.7,69.3,17.4,67.4,17.4z"></path>	<polygon class="st3" points="73.1,10.9 76,10.9 76,19.2 78.3,19.2 78.3,10.9 81.3,10.9 81.3,8.9 73.1,8.9  "></polygon>	<polygon class="st3" points="85.1,14.8 88.9,14.8 88.9,12.9 85.1,12.9 85.1,10.9 89.1,10.9 89.1,8.9 82.9,8.9 82.9,19.2 89.3,19.2   89.3,17.2 85.1,17.2  "></polygon>	<polygon class="st3" points="93.7,8.9 91.5,8.9 91.5,19.2 97.9,19.2 97.9,17.2 93.7,17.2  "></polygon></g><g class="st0">	<path class="st3" d="M138.8,24.7c-7.2-9.5-16.5-15-27.5-16.4c-11.6-1.5-23.2,1.9-32.5,6.1c-9.3-4.2-21-7.5-32.6-6.1  c-11,1.4-20.2,6.9-27.5,16.4C1.9,46.8,12.5,65.4,20.2,79c1.9,3.3,3.6,6.3,4.7,9c5.1,12.3,5.6,24.6,6.1,34.6  c0.6,13.7,1.2,26.6,16,26.6c14.2,0,25.6-22.9,26.5-53.3c0-0.1,0-0.1,0-0.1c0-2.9,2.4-5.3,5.3-5.3c2.9,0,5.3,2.4,5.3,5.3  c0,0.2,0,0.5,0.1,0.7c1,30.1,12.3,52.8,26.4,52.8c14.8,0,15.4-12.9,16-26.6c0.5-9.9,1-22.3,6.1-34.5c1.1-2.7,2.9-5.8,4.7-9  C145.1,65.4,155.7,46.8,138.8,24.7z M131.5,75.6c-2,3.5-3.8,6.7-5.1,9.8c-5.5,13.4-6.1,26.4-6.6,36.8c-0.7,15.2-1.6,20.2-9.2,20.2  c-8.9,0-18.9-18.8-19.7-46.8c0-0.3-0.1-0.6-0.1-0.8c-0.5-6.2-5.6-11.1-12-11.1c-6.6,0-12,5.4-12.1,12c-0.8,28-10.8,46.8-19.7,46.8  c-7.7,0-8.5-4.9-9.2-20.1c-0.5-10.4-1.1-23.4-6.6-36.8c-1.3-3.1-3.1-6.3-5.1-9.8C18.6,62.3,10,47.3,24.2,28.8  c6.1-8,13.8-12.6,22.9-13.7c8.1-1,16.3,0.7,23.7,3.4c2.9,1.1,5.6,2.2,8.1,3.5c9,4.4,15.1,9.2,15.2,9.2c1.5,1.2,3.6,0.9,4.7-0.6  c1.2-1.5,0.9-3.6-0.6-4.7c-0.4-0.3-4.7-3.7-11.3-7.4c7.3-2.7,15.6-4.4,23.6-3.4c9.1,1.1,16.8,5.8,22.9,13.7  C147.6,47.3,139.1,62.3,131.5,75.6z"></path>	<path class="st3" d="M41.8,80.1c-2,0-3.8-1.4-4.3-3.3l-6.7-25.4L5.4,44.8c-1.9-0.5-3.3-2.3-3.3-4.3c0-2,1.4-3.8,3.3-4.3l25.4-6.7  l6.7-25.4c0.5-1.9,2.3-3.3,4.3-3.3c2,0,3.8,1.4,4.3,3.3l6.7,25.4l25.4,6.7c1.9,0.5,3.3,2.3,3.3,4.3c0,2-1.4,3.7-3.3,4.3l-25.4,6.7  L46,76.8C45.5,78.8,43.8,80.1,41.8,80.1z M15.9,40.5l18,4.7c1.5,0.4,2.7,1.6,3.1,3.1l4.7,18l4.7-18c0.4-1.5,1.6-2.7,3.1-3.1l18-4.7  l-18-4.7c-1.5-0.4-2.7-1.6-3.1-3.1l-4.7-18l-4.7,18l0,0c-0.4,1.5-1.6,2.7-3.1,3.1L15.9,40.5z M33.8,31.8L33.8,31.8L33.8,31.8z"></path></g><g class="st0">	<g class="st1">		<g>			<polyline class="st4" points="5.2,100 23.3,65.6 126.1,65.6 142.3,100.3    "></polyline>			<path class="st2" d="M142.3,102.7c-0.9,0-1.8-0.5-2.2-1.4L124.6,68H24.7L7.3,101.2c-0.6,1.2-2.1,1.6-3.2,1    c-1.2-0.6-1.6-2.1-1-3.2l18.1-34.5c0.4-0.8,1.2-1.3,2.1-1.3h102.9c0.9,0,1.8,0.5,2.2,1.4l16.2,34.7c0.6,1.2,0,2.6-1.2,3.2    C143,102.6,142.7,102.7,142.3,102.7z"></path>		</g>		<g>			<path class="st4" d="M29,90.7V36.2L52.8,9.5h59.3c3.6,0,6.5,2.9,6.5,6.5v74.8"></path>			<path class="st2" d="M118.5,93.1c-1.3,0-2.4-1.1-2.4-2.4V16c0-2.2-1.8-4.1-4.1-4.1H53.9L31.4,37.1v53.6c0,1.3-1.1,2.4-2.4,2.4    c-1.3,0-2.4-1.1-2.4-2.4V36.2c0-0.6,0.2-1.2,0.6-1.6L51,7.9c0.5-0.5,1.1-0.8,1.8-0.8h59.3c4.9,0,8.9,4,8.9,8.9v74.8    C120.9,92,119.9,93.1,118.5,93.1z"></path>		</g>		<g>			<polygon class="st4" points="29,36.2 53,36.2 53,9.5 52.8,9.5    "></polygon>			<path class="st2" d="M53,38.6H29c-0.9,0-1.8-0.6-2.2-1.4c-0.4-0.9-0.2-1.9,0.4-2.6L51,7.9c0.5-0.5,1.1-0.8,1.8-0.8H53    c1.3,0,2.4,1.1,2.4,2.4v26.7C55.4,37.5,54.3,38.6,53,38.6z M34.3,33.8h16.3V15.5L34.3,33.8z"></path>		</g>		<rect x="31.5" y="78.9" class="st4" width="84.5" height="31.9"></rect>		<g>			<path class="st4" d="M135,140.5H12.5c-4.1,0-7.3-3.3-7.3-7.3V100c0-1.4,1.1-2.5,2.5-2.5h33.8c1.7,0,3.4,0.6,4.7,1.7l11.5,9.3    c1.7,1.4,3.9,2.1,6.1,2.1h19.4c2.4,0,4.8-0.9,6.5-2.5l9.3-8.5c1.4-1.3,3.2-2,5.1-2h35.2c1.7,0,3.1,1.4,3.1,3.1v32.5    C142.3,137.2,139,140.5,135,140.5z"></path>			<path class="st2" d="M135,142.9H12.5c-5.4,0-9.7-4.4-9.7-9.7V100c0-2.7,2.2-4.9,4.9-4.9h33.8c2.3,0,4.5,0.8,6.2,2.2l11.5,9.3    c1.3,1,2.9,1.6,4.6,1.6h19.4c1.8,0,3.6-0.7,4.9-1.9l9.3-8.5c1.8-1.7,4.2-2.6,6.7-2.6h35.2c3,0,5.5,2.5,5.5,5.5v32.5    C144.7,138.5,140.4,142.9,135,142.9z M7.7,99.9C7.6,99.9,7.6,100,7.7,99.9l-0.1,33.2c0,2.7,2.2,4.9,4.9,4.9H135    c2.7,0,4.9-2.2,4.9-4.9v-32.5c0-0.4-0.3-0.7-0.7-0.7h-35.2c-1.3,0-2.5,0.5-3.5,1.4l-9.3,8.5c-2.2,2.1-5.1,3.2-8.2,3.2H63.8    c-2.7,0-5.4-0.9-7.6-2.7l-11.5-9.3c-0.9-0.7-2-1.1-3.2-1.1H7.7z"></path>		</g>		<g>			<path class="st2" d="M17.9,130.5c-1.3,0-2.4-1.1-2.4-2.4v-5.5c0-1.3,1.1-2.4,2.4-2.4c1.3,0,2.4,1.1,2.4,2.4v5.5    C20.3,129.4,19.2,130.5,17.9,130.5z"></path>		</g>		<g>			<path class="st5" d="M33.7,130.5c-1.3,0-2.4-1.1-2.4-2.4v-5.5c0-1.3,1.1-2.4,2.4-2.4c1.3,0,2.4,1.1,2.4,2.4v5.5    C36.1,129.4,35.1,130.5,33.7,130.5z"></path>		</g>		<g>			<path class="st2" d="M49.6,130.5c-1.3,0-2.4-1.1-2.4-2.4v-5.5c0-1.3,1.1-2.4,2.4-2.4c1.3,0,2.4,1.1,2.4,2.4v5.5    C52,129.4,50.9,130.5,49.6,130.5z"></path>		</g>		<g>			<path class="st5" d="M65.4,130.5c-1.3,0-2.4-1.1-2.4-2.4v-5.5c0-1.3,1.1-2.4,2.4-2.4c1.3,0,2.4,1.1,2.4,2.4v5.5    C67.8,129.4,66.7,130.5,65.4,130.5z"></path>		</g>		<g>			<path class="st2" d="M81.2,130.5c-1.3,0-2.4-1.1-2.4-2.4v-5.5c0-1.3,1.1-2.4,2.4-2.4s2.4,1.1,2.4,2.4v5.5    C83.6,129.4,82.5,130.5,81.2,130.5z"></path>		</g>		<g>			<path class="st5" d="M97.1,130.5c-1.3,0-2.4-1.1-2.4-2.4v-5.5c0-1.3,1.1-2.4,2.4-2.4c1.3,0,2.4,1.1,2.4,2.4v5.5    C99.5,129.4,98.4,130.5,97.1,130.5z"></path>		</g>		<g>			<path class="st2" d="M112.9,130.5c-1.3,0-2.4-1.1-2.4-2.4v-5.5c0-1.3,1.1-2.4,2.4-2.4c1.3,0,2.4,1.1,2.4,2.4v5.5    C115.3,129.4,114.2,130.5,112.9,130.5z"></path>		</g>		<g>			<path class="st5" d="M128.7,130.5c-1.3,0-2.4-1.1-2.4-2.4v-5.5c0-1.3,1.1-2.4,2.4-2.4c1.3,0,2.4,1.1,2.4,2.4v5.5    C131.1,129.4,130,130.5,128.7,130.5z"></path>		</g>		<polygon class="st6" points="55.9,94.5 34.1,94.5 75.1,15.7 97,15.7   "></polygon>		<polygon class="st6" points="82.6,101.5 60.7,101.5 105.6,15.7 111,15.7 111.3,46.7   "></polygon>		<g>			<path class="st2" d="M77.5,57.5H46.9c-1.3,0-2.4-1.1-2.4-2.4s1.1-2.4,2.4-2.4h30.6c1.3,0,2.4,1.1,2.4,2.4S78.8,57.5,77.5,57.5z"></path>		</g>		<g>			<path class="st2" d="M102.3,57.5H87.4c-1.3,0-2.4-1.1-2.4-2.4s1.1-2.4,2.4-2.4h14.9c1.3,0,2.4,1.1,2.4,2.4S103.7,57.5,102.3,57.5    z"></path>		</g>		<g>			<path class="st2" d="M92,68H46.9c-1.3,0-2.4-1.1-2.4-2.4s1.1-2.4,2.4-2.4H92c1.3,0,2.4,1.1,2.4,2.4S93.4,68,92,68z"></path>		</g>		<g>			<path class="st2" d="M79.5,78.6H46.9c-1.3,0-2.4-1.1-2.4-2.4c0-1.3,1.1-2.4,2.4-2.4h32.6c1.3,0,2.4,1.1,2.4,2.4    C81.9,77.6,80.8,78.6,79.5,78.6z"></path>		</g>	</g>	<path class="st3" d="M23.2,25.4c-0.2,0.7-1.2,0.7-1.4,0c-0.3-1.4-0.8-2.8-1.2-3.3c-0.5-0.5-2-1-3.4-1.3c-0.7-0.2-0.7-1.2,0-1.4  c1.5-0.4,3-0.9,3.2-1.1c0.2-0.2,0.8-1.9,1.2-3.4c0.2-0.7,1.2-0.7,1.4,0c0.3,1.4,0.8,2.9,1.3,3.4c0.5,0.5,1.9,0.9,3.3,1.2  c0.7,0.2,0.7,1.2,0,1.4c-1.4,0.4-2.9,0.9-3.2,1.1C24.1,22.3,23.6,23.9,23.2,25.4z"></path>	<path class="st3" d="M137.5,44.9c-0.2,0.7-1.2,0.7-1.4,0c-0.3-1.4-0.8-2.8-1.2-3.3c-0.5-0.5-2-1-3.4-1.3c-0.7-0.2-0.7-1.2,0-1.4  c1.5-0.4,3-0.9,3.2-1.1c0.2-0.2,0.8-1.9,1.2-3.4c0.2-0.7,1.2-0.7,1.4,0c0.3,1.4,0.8,2.9,1.3,3.4c0.5,0.5,1.9,0.9,3.3,1.2  c0.7,0.2,0.7,1.2,0,1.4c-1.4,0.4-2.9,0.9-3.2,1.1C138.4,41.8,137.9,43.4,137.5,44.9z"></path>	<path class="st3" d="M142.3,26.6c-0.2,0.7-1.2,0.7-1.4,0c-0.3-1.4-0.8-2.8-1.2-3.3c-0.5-0.5-2-1-3.4-1.3c-0.7-0.2-0.7-1.2,0-1.4  c1.5-0.4,3-0.9,3.2-1.1c0.2-0.2,0.8-1.9,1.2-3.4c0.2-0.7,1.2-0.7,1.4,0c0.3,1.4,0.8,2.9,1.3,3.4c0.5,0.5,1.9,0.9,3.3,1.2  c0.7,0.2,0.7,1.2,0,1.4c-1.4,0.4-2.9,0.9-3.2,1.1C143.3,23.6,142.8,25.1,142.3,26.6z"></path></g><g class="st0">	<path class="st3" d="M82.2,15.4c-1.3-0.3-2.7-0.6-4-0.8l-0.3,2c1.3,0.2,2.6,0.5,3.9,0.8L82.2,15.4z"></path>	<path class="st3" d="M73.9,16.2l0.1-2c-1.3-0.1-2.6-0.1-3.9-0.1h-0.2l0.2,2C71.3,16.1,72.6,16.1,73.9,16.2z"></path>	<path class="st3" d="M65.9,16.2l-0.2-2c-1.4,0.1-2.7,0.3-4.1,0.5l0.3,2C63.3,16.5,64.6,16.4,65.9,16.2z"></path>	<path class="st3" d="M58.1,17.5l-0.5-2c-1.3,0.3-2.7,0.7-4,1.1l0.6,1.9C55.6,18.2,56.9,17.8,58.1,17.5z"></path>	<path class="st3" d="M90,18c-1.3-0.5-2.6-1-3.9-1.4l-0.6,1.9c1.3,0.4,2.5,0.9,3.7,1.4L90,18z"></path>	<path class="st3" d="M109.9,32.3c-0.9-1-1.9-2.1-2.8-3l-1.4,1.4c0.9,0.9,1.8,1.9,2.7,2.9L109.9,32.3z"></path>	<path class="st3" d="M104,26.5c-1-0.9-2.1-1.7-3.2-2.5l-1.2,1.7c1.1,0.8,2.1,1.6,3.1,2.4L104,26.5z"></path>	<path class="st3" d="M97.4,21.7c-1.2-0.7-2.4-1.4-3.6-2l-0.9,1.8c1.2,0.6,2.3,1.2,3.5,1.9L97.4,21.7z"></path>	<path class="st3" d="M50.6,20l-0.8-1.9c-1.3,0.5-2.5,1.1-3.7,1.7l0.9,1.8C48.2,21,49.4,20.5,50.6,20z"></path>	<path class="st3" d="M113.1,92.9l1.7,1.1c0.7-1.2,1.4-2.4,2-3.6l-1.8-0.9C114.5,90.6,113.8,91.8,113.1,92.9z"></path>	<path class="st3" d="M27.1,93l-1.7,1.1c0.7,1.2,1.5,2.3,2.3,3.4l1.6-1.2C28.5,95.2,27.8,94.1,27.1,93z"></path>	<path class="st3" d="M31.7,99.4l-1.5,1.3c0.9,1,1.8,2.1,2.8,3l1.4-1.4C33.5,101.4,32.6,100.4,31.7,99.4z"></path>	<path class="st3" d="M25.1,89.6c-0.6-1.2-1.2-2.4-1.7-3.6l-1.9,0.8c0.5,1.3,1.1,2.5,1.7,3.7L25.1,89.6z"></path>	<path class="st3" d="M118.6,86.7c0-0.1,0.1-0.1,0.1-0.2h27.7v-46h-4.8l-1.4-0.9v-0.2l-0.4,0l-0.7-0.4v0.4c-2.8,0-5.6-0.6-8.5-1.1  c-3.1-0.6-6.2-1.2-9.3-1.2c-2.6,0-4.9,0.4-7,1.3c-0.6-0.9-1.2-1.9-1.9-2.8l-1.6,1.2c0.6,0.8,1.1,1.6,1.7,2.5c0,0-0.1,0-0.1,0.1  c-2.6-1.5-5.6-2.3-9-2.3c-3.1,0-6.3,0.6-9.3,1.2c-3,0.6-5.8,1.1-8.5,1.1v-0.4l-0.7,0.4l-0.4,0v0.2l-1.4,0.9h-4.8v27.8H67.9  c1.7-4,2.6-8.4,2.6-13c0-7-2.2-13.5-5.8-18.8c0-0.1-0.1-0.1-0.1-0.2c-5-7.2-12.8-12.4-21.7-13.9l-0.3-0.5c-0.2,0.1-0.4,0.3-0.6,0.4  c-1.6-0.2-3.2-0.4-4.9-0.4c-11.4,0-21.5,5.7-27.5,14.5c0,0-0.1,0.1-0.1,0.1c-3.7,5.4-5.8,11.8-5.8,18.8C3.6,73.3,18,88.1,36,88.7  v27.1l-13.3,15.5v4.7h101.9v-4.7l-13.3-15.5V99.2c0.5-0.6,0.9-1.2,1.4-1.7l-1.4-1v-10h1.2h2.9h2.8L118.6,86.7z M103.4,38  c3.2,0,6,0.7,8.5,2.1v1.7v1v38.4c-2.5-1.3-5.3-2-8.5-2c-3.1,0-6.3,0.6-9.3,1.2c-3,0.6-5.8,1.1-8.5,1.1V40.3c2.9,0,5.8-0.6,8.7-1.1  C97.2,38.6,100.3,38,103.4,38z M130.5,39.2c2.9,0.5,5.8,1.1,8.7,1.1v41.3c-2.8,0-5.6-0.6-8.5-1.1c-3.1-0.6-6.2-1.2-9.3-1.2  c-3.2,0-6,0.6-8.5,2V42.9v-1v-1.7c2.5-1.4,5.3-2.1,8.5-2.1C124.4,38,127.5,38.6,130.5,39.2z M113.3,82.3c2.4-1.3,5-1.9,8.1-1.9  c3,0,6.1,0.6,9.1,1.2c3,0.6,6.1,1.1,9,1.1h0.1l2.3,1.5h-26.7C115,83.2,114.3,82.5,113.3,82.3z M82.8,84.2l2.3-1.5h0.1  c3,0,6-0.6,9-1.1c3-0.6,6.1-1.2,9.1-1.2c3,0,5.6,0.6,8,1.9c-1,0.2-1.8,0.9-2.1,2H82.8z M142.9,42.6v0.3v40.8l-2.7-1.8V40.8  L142.9,42.6z M84.5,81.9l-2.7,1.8V42.9v-0.3l2.7-1.8V81.9z M78.3,72.9v13.5h28.3v24.7h-66V72.9H78.3z M10.8,38H21  c-1.7,4.8-2.7,10.4-2.8,16.3H5.6C5.8,48.3,7.6,42.7,10.8,38z M68.5,54.3H55.9c-0.1-6-1.1-11.6-2.8-16.3h10.2  C66.5,42.7,68.3,48.3,68.5,54.3z M54,54.3H38V38h13.2C52.9,42.7,53.9,48.3,54,54.3z M38,36V24c5,0.5,9.5,5.1,12.4,12.1H38z   M36.1,36H23.7c2.9-6.9,7.4-11.5,12.4-12.1V36z M36.1,38v16.3H20.1c0.1-6,1.1-11.6,2.8-16.3H36.1z M20.1,56.2h15.9v12H36v4H22.9  C21.2,67.7,20.2,62.2,20.1,56.2z M36,74.2v12.3c-5-0.6-9.5-5.3-12.4-12.3H36z M38,56.2H54c-0.1,4.3-0.6,8.3-1.5,12H38V56.2z   M18.2,56.2c0.1,5.9,1.1,11.3,2.7,16.1H10.6c-3-4.7-4.8-10.2-5-16.1H18.2z M54.4,68.3c0.9-3.7,1.4-7.8,1.5-12h12.6  c-0.1,4.3-1.1,8.3-2.8,12H54.4z M52.4,36c-2-4.9-4.7-8.9-7.9-11.3c7,1.7,13.1,5.8,17.4,11.3H52.4z M29.6,24.7  c-3.2,2.4-5.9,6.4-7.9,11.3h-9.5C16.5,30.5,22.6,26.4,29.6,24.7z M21.6,74.2c2,5.1,4.8,9.1,8,11.6c-7.1-1.7-13.3-5.9-17.6-11.6  H21.6z M66.1,128.9l0.6-3.6h13.7l0.6,3.6H66.1z M112.6,123.5H34.5l3.1-5.4h72L112.6,123.5z"></path>	<path class="st3" d="M103.4,76.3c-3.4,0-6.7,0.6-9.9,1.2c-1.9,0.4-3.7,0.7-5.4,0.9l0.1,0.9c1.8-0.2,3.6-0.5,5.5-0.9  c3.2-0.6,6.4-1.2,9.7-1.2c2.1,0,4,0.2,5.8,0.7l0.2-0.8C107.5,76.6,105.5,76.3,103.4,76.3z"></path>	<path class="st3" d="M103.4,73.3c-3.4,0-6.6,0.6-9.8,1.2c-1.9,0.4-3.7,0.7-5.5,0.9l0.1,0.9c1.8-0.2,3.6-0.6,5.6-0.9  c3.1-0.6,6.4-1.2,9.6-1.2c2.1,0,4,0.3,5.8,0.8l0.2-0.8C107.5,73.6,105.5,73.3,103.4,73.3z"></path>	<path class="st3" d="M93.7,71.5c-1.9,0.4-3.8,0.7-5.6,0.9l0.1,0.9c1.9-0.2,3.8-0.6,5.7-0.9c3.1-0.6,6.3-1.2,9.5-1.2  c2.1,0,4,0.3,5.8,0.8l0.2-0.8c-1.9-0.6-3.8-0.8-6-0.8C100,70.3,96.8,70.9,93.7,71.5z"></path>	<path class="st3" d="M88,69.4l0.1,0.9c1.9-0.2,3.8-0.6,5.8-0.9c3.1-0.6,6.3-1.2,9.4-1.2c2.1,0,4,0.3,5.8,0.8l0.3-0.8  c-1.9-0.6-3.8-0.9-6-0.9c-3.3,0-6.5,0.6-9.6,1.2C91.7,68.9,89.9,69.2,88,69.4z"></path>	<path class="st3" d="M88.1,67.3c1.9-0.2,3.9-0.6,5.9-1c3.1-0.6,6.2-1.2,9.3-1.2c2.1,0,4,0.3,5.8,0.9l0.3-0.8  c-1.8-0.6-3.8-0.9-6-0.9c-3.2,0-6.4,0.6-9.5,1.2c-2,0.4-3.9,0.7-5.8,0.9L88.1,67.3z"></path>	<path class="st3" d="M88.1,64.3c2-0.2,4-0.6,6-1c3-0.6,6.2-1.2,9.3-1.2c2.1,0,4,0.3,5.8,0.9l0.3-0.8c-1.8-0.6-3.8-0.9-6-0.9  c-3.2,0-6.3,0.6-9.4,1.2c-1.9,0.4-4,0.7-5.9,1L88.1,64.3z"></path>	<path class="st3" d="M88.1,61.3c2-0.2,4.1-0.6,6.1-1c3-0.6,6.1-1.2,9.2-1.2c2.1,0,4,0.3,5.8,0.9l0.3-0.8c-1.8-0.6-3.8-1-6-1  c-3.1,0-6.3,0.6-9.3,1.2c-2,0.4-4,0.8-6,1L88.1,61.3z"></path>	<path class="st3" d="M88.1,58.3c2-0.2,4.1-0.6,6.2-1c3.1-0.6,6.1-1.2,9.1-1.2c2.1,0,4,0.3,5.7,0.9l0.3-0.8c-1.8-0.7-3.8-1-6-1  c-3.1,0-6,0.6-9.2,1.2c-2,0.4-4.1,0.8-6.1,1L88.1,58.3z"></path>	<path class="st3" d="M88.1,55.2c2.1-0.2,4.2-0.6,6.3-1c3.1-0.6,6-1.1,9-1.1c2.1,0,4,0.3,5.7,1l0.3-0.8c-1.8-0.7-3.8-1-6-1  c-3,0-6,0.6-9.1,1.2c-2,0.4-4.1,0.8-6.2,1L88.1,55.2z"></path>	<path class="st3" d="M88.1,52.2c2.1-0.2,4.3-0.6,6.4-1c3.1-0.6,6-1.1,8.9-1.1c2.1,0,4,0.3,5.7,1l0.3-0.8c-1.8-0.7-3.8-1-6.1-1  c-3,0-5.9,0.6-9,1.2c-2.1,0.4-4.2,0.8-6.3,1L88.1,52.2z"></path>	<path class="st3" d="M103.4,47.1c2.2,0,4,0.3,5.7,1l0.3-0.8c-1.8-0.7-3.8-1.1-6.1-1.1c-2.9,0-5.8,0.6-8.9,1.1  c-2.1,0.4-4.2,0.8-6.4,1l0.1,0.9c2.2-0.2,4.3-0.6,6.5-1C97.6,47.6,100.5,47.1,103.4,47.1z"></path>	<path class="st3" d="M94.5,44.3c-2.1,0.4-4.3,0.8-6.5,1l0.1,0.9c2.2-0.2,4.4-0.6,6.6-1c3-0.6,5.9-1.1,8.7-1.1c2.2,0,4,0.3,5.7,1  l0.3-0.8c-1.8-0.7-3.8-1.1-6.1-1.1C100.5,43.2,97.6,43.7,94.5,44.3z"></path>	<path class="st3" d="M94.6,41.3c-2.1,0.4-4.4,0.8-6.6,1l0.1,0.9c2.3-0.2,4.5-0.6,6.6-1.1c3-0.6,5.8-1.1,8.6-1.1  c2.2,0,4,0.4,5.7,1.1l0.3-0.8c-1.8-0.8-3.8-1.1-6.1-1.1C100.5,40.2,97.7,40.7,94.6,41.3z"></path>	<path class="st3" d="M121.3,76.3c-2.2,0-4.1,0.3-6,0.8l0.2,0.8c1.8-0.5,3.7-0.7,5.8-0.7c3.3,0,6.6,0.6,9.7,1.2  c1.9,0.4,3.7,0.7,5.5,0.9l0.1-0.9c-1.7-0.2-3.5-0.5-5.4-0.9C128,77,124.7,76.3,121.3,76.3z"></path>	<path class="st3" d="M121.3,73.3c-2.2,0-4.1,0.3-6,0.8l0.2,0.8c1.8-0.5,3.7-0.8,5.8-0.8c3.3,0,6.5,0.6,9.7,1.2  c1.9,0.4,3.8,0.7,5.6,0.9l0.1-0.9c-1.8-0.2-3.6-0.5-5.5-0.9C128,73.9,124.7,73.3,121.3,73.3z"></path>	<path class="st3" d="M121.3,71.2c3.2,0,6.4,0.6,9.5,1.2c2,0.4,3.8,0.7,5.7,0.9l0.1-0.9c-1.8-0.2-3.7-0.6-5.6-0.9  c-3.1-0.6-6.4-1.2-9.7-1.2c-2.2,0-4.2,0.3-6,0.8l0.2,0.8C117.4,71.4,119.2,71.2,121.3,71.2z"></path>	<path class="st3" d="M121.3,68.2c3.2,0,6.4,0.6,9.5,1.2c2,0.4,3.9,0.7,5.7,0.9l0.1-0.9c-1.8-0.2-3.7-0.6-5.7-0.9  c-3.1-0.6-6.3-1.2-9.6-1.2c-2.2,0-4.2,0.3-6,0.9l0.3,0.8C117.3,68.4,119.2,68.2,121.3,68.2z"></path>	<path class="st3" d="M121.3,65.1c3.1,0,6.3,0.6,9.4,1.2c1.9,0.4,3.9,0.7,5.9,1l0.1-0.9c-1.9-0.2-3.8-0.6-5.8-0.9  c-3.1-0.6-6.3-1.2-9.5-1.2c-2.2,0-4.2,0.3-6,0.9l0.3,0.8C117.3,65.4,119.2,65.1,121.3,65.1z"></path>	<path class="st3" d="M121.3,62.1c3.1,0,6.2,0.6,9.3,1.2c2,0.4,4,0.8,5.9,1l0.1-0.9c-1.9-0.2-3.8-0.6-5.9-1  c-3.1-0.6-6.3-1.2-9.4-1.2c-2.2,0-4.2,0.3-6,0.9l0.3,0.8C117.3,62.4,119.2,62.1,121.3,62.1z"></path>	<path class="st3" d="M121.3,59.1c3,0,6.1,0.6,9.2,1.2c2,0.4,4.1,0.8,6.1,1l0.1-0.9c-2-0.2-4-0.6-6-1c-3-0.6-6.2-1.2-9.3-1.2  c-2.2,0-4.2,0.3-6,1l0.3,0.8C117.3,59.4,119.2,59.1,121.3,59.1z"></path>	<path class="st3" d="M121.3,56.1c3,0,5.9,0.6,9.1,1.2c2,0.4,4.1,0.8,6.1,1l0.1-0.9c-2-0.2-4.1-0.6-6.1-1c-3.2-0.6-6.2-1.2-9.2-1.2  c-2.2,0-4.2,0.3-6,1l0.3,0.8C117.3,56.4,119.2,56.1,121.3,56.1z"></path>	<path class="st3" d="M121.3,53.1c2.9,0,5.9,0.6,9,1.1c2,0.4,4.2,0.8,6.2,1l0.1-0.9c-2-0.2-4.1-0.6-6.2-1c-3.1-0.6-6.1-1.2-9.1-1.2  c-2.2,0-4.2,0.3-6,1l0.3,0.8C117.3,53.4,119.2,53.1,121.3,53.1z"></path>	<path class="st3" d="M121.3,50.1c2.9,0,5.8,0.6,8.9,1.1c2.1,0.4,4.2,0.8,6.3,1l0.1-0.9c-2.1-0.2-4.2-0.6-6.3-1  c-3.1-0.6-6.1-1.2-9-1.2c-2.3,0-4.2,0.3-6,1l0.3,0.8C117.3,50.4,119.2,50.1,121.3,50.1z"></path>	<path class="st3" d="M121.3,47.1c2.8,0,5.7,0.5,8.8,1.1c2.1,0.4,4.3,0.8,6.5,1l0.1-0.9c-2.1-0.2-4.3-0.6-6.4-1  c-3.1-0.6-6-1.1-8.9-1.1c-2.3,0-4.2,0.4-6.1,1.1l0.3,0.8C117.3,47.4,119.2,47.1,121.3,47.1z"></path>	<path class="st3" d="M121.3,44.1c2.8,0,5.6,0.5,8.7,1.1c2.1,0.4,4.3,0.8,6.5,1l0.1-0.9c-2.2-0.2-4.4-0.6-6.5-1  c-3.1-0.6-6-1.1-8.8-1.1c-2.3,0-4.3,0.4-6.1,1.1l0.3,0.8C117.3,44.4,119.2,44.1,121.3,44.1z"></path>	<path class="st3" d="M115.3,41.3l0.3,0.8c1.7-0.7,3.6-1.1,5.7-1.1c2.7,0,5.6,0.5,8.6,1.1c2.2,0.4,4.4,0.8,6.6,1.1l0.1-0.9  c-2.2-0.2-4.4-0.6-6.6-1c-3-0.6-5.9-1.1-8.7-1.1C119.1,40.2,117.1,40.6,115.3,41.3z"></path></g><g class="st0">	<g class="st1">		<g>			<rect x="72.8" y="11.2" class="st2" width="4.4" height="24.4"></rect>		</g>		<g>			<polygon class="st2" points="46.6,44.9 35.8,23.7 39.6,21.3 50.4,42.4    "></polygon>		</g>		<g>			<polygon class="st2" points="28,67.7 9.2,55.5 11.4,51.2 30.2,63.4    "></polygon>		</g>		<g>			<rect x="0.3" y="93" class="st2" width="21.7" height="5"></rect>		</g>		<g>			<polygon class="st2" points="103.4,44.9 99.6,42.4 110.4,21.3 114.2,23.7    "></polygon>		</g>		<g>			<polygon class="st2" points="122,67.7 119.8,63.4 138.6,51.2 140.8,55.5    "></polygon>		</g>		<g>			<rect x="128" y="93" class="st2" width="21.7" height="5"></rect>		</g>	</g>	<g class="st1">		<g>			<g>				<polygon class="st2" points="64.9,67.3 64.9,67.2 35,82.4 35,138.8 40.6,138.8 40.6,86.6 64.8,74.2 64.8,138.8 78,138.8      78,82.9     "></polygon>				<polygon class="st2" points="44.5,98.4 59.3,93.2 59.3,83.9 44.5,91.7     "></polygon>				<polygon class="st2" points="44.5,111.1 59.3,108.3 59.3,100.1 44.5,105     "></polygon>				<polygon class="st2" points="44.5,124.7 59.3,123.9 59.3,116.1 44.5,117.9     "></polygon>				<rect x="44.5" y="131.2" class="st2" width="14.9" height="7.6"></rect>			</g>			<polygon class="st2" points="82.3,138.5 82.3,44.4 95.6,62.1 95.6,138.6    "></polygon>			<g>				<polygon class="st2" points="58.8,77.1 54.2,77.1 54.2,59.6 82.5,44.3 84.4,48.9 58.8,62.8     "></polygon>			</g>			<rect x="64.8" y="135" class="st2" width="55.1" height="3.8"></rect>			<rect x="30" y="135" class="st2" width="10.6" height="3.8"></rect>		</g>		<g>			<rect x="74.1" y="138.7" class="st2" width="5.7" height="0.1"></rect>			<polygon class="st2" points="102.2,67.3 102.1,67.2 89.1,73.8 89.1,80.8 102.1,74.2 102.1,138.8 115.3,138.8 115.3,82.9    "></polygon>		</g>	</g></g><g class="st0">	<path class="st3" d="M6.5,66.2H5.1c-2.2,0-3.9,1.8-3.9,3.9c0,2.2,1.8,3.9,3.9,3.9h1.4c2.2,0,3.9-1.8,3.9-3.9  C10.4,67.9,8.7,66.2,6.5,66.2z"></path>	<path class="st3" d="M39.1,74c2.2,0,3.9-1.8,3.9-3.9c0-2.2-1.8-3.9-3.9-3.9H17.3c-2.2,0-3.9,1.8-3.9,3.9c0,2.2,1.8,3.9,3.9,3.9  H39.1z"></path>	<path class="st3" d="M19.8,59.4h1.4c2.2,0,3.9-1.8,3.9-3.9c0-2.2-1.8-3.9-3.9-3.9h-1.4c-2.2,0-3.9,1.8-3.9,3.9  C15.8,57.7,17.6,59.4,19.8,59.4z"></path>	<path class="st3" d="M43.4,51.6H32c-2.2,0-3.9,1.8-3.9,3.9c0,2.2,1.8,3.9,3.9,3.9h11.4c2.2,0,3.9-1.8,3.9-3.9  C47.3,53.3,45.6,51.6,43.4,51.6z"></path>	<path class="st3" d="M21.2,80.7h-1.4c-2.2,0-3.9,1.8-3.9,3.9c0,2.2,1.8,3.9,3.9,3.9h1.4c2.2,0,3.9-1.8,3.9-3.9  C25.1,82.5,23.4,80.7,21.2,80.7z"></path>	<path class="st3" d="M43.4,80.7H32c-2.2,0-3.9,1.8-3.9,3.9c0,2.2,1.8,3.9,3.9,3.9h11.4c2.2,0,3.9-1.8,3.9-3.9  C47.3,82.5,45.6,80.7,43.4,80.7z"></path>	<path class="st3" d="M147.8,73.5L129,52.9c-0.7-0.8-1.8-1.3-2.9-1.3h-22.3V34.9c0-2.2-1.8-3.9-3.9-3.9H28.4c-2.2,0-3.9,1.8-3.9,3.9  c0,2.2,1.8,3.9,3.9,3.9H96v62.5H62.2c-1.7-5.7-7-9.9-13.2-9.9c-6.2,0-11.5,4.2-13.2,9.9h-7.3c-2.2,0-3.9,1.8-3.9,3.9  c0,2.2,1.8,3.9,3.9,3.9h7.3c1.7,5.7,7,9.9,13.2,9.9c6.2,0,11.5-4.2,13.2-9.9h37.7h9.3c1.7,5.7,7,9.9,13.2,9.9  c6.2,0,11.5-4.2,13.2-9.9h9.3c2.2,0,3.9-1.8,3.9-3.9V76.1C148.8,75.1,148.5,74.2,147.8,73.5z M49,111.2c-3.3,0-5.9-2.7-5.9-5.9  c0-3.3,2.7-5.9,5.9-5.9c3.3,0,5.9,2.7,5.9,5.9C54.9,108.5,52.2,111.2,49,111.2z M122.4,111.2c-3.3,0-5.9-2.7-5.9-5.9  c0-3.3,2.7-5.9,5.9-5.9c3.3,0,5.9,2.7,5.9,5.9C128.4,108.5,125.7,111.2,122.4,111.2z M135.6,101.3c-1.7-5.7-7-9.9-13.2-9.9  c-6.2,0-11.5,4.2-13.2,9.9h-5.4V59.4h20.5L136,72.2h-22.2c-2.2,0-3.9,1.8-3.9,3.9c0,2.2,1.8,3.9,3.9,3.9H141v21.3H135.6z"></path></g><g class="st0">	<g class="st1">		<path class="st2" d="M141.8,113.6c-1.6-0.3-3.4-0.7-4.8-1c0.2-0.6,0.3-1.2,0.3-1.9v-73c0-2-0.8-3.9-2.3-5.2   c-1.4-1.2-3.1-1.8-5-1.7H86.1v-3.8c0-3.6-3-6.6-6.6-6.6H13.8c-3.6,0-6.6,3-6.6,6.6v50.6c0,3.3,2.4,6,5.5,6.5v26.5   c0,0.6,0.1,1.2,0.3,1.8c-1.4,0.3-3.2,0.7-4.8,1c-1.7,0.4-6.9,1.5-6.9,6.6v1c0,4.1,5.5,8.2,9.5,8.2h128.6c4,0,9.5-4.1,9.5-8.2v-1   C148.8,117.8,147.6,114.8,141.8,113.6z M10.3,77.8V27.2c0-2,1.6-3.6,3.5-3.6h65.6c2,0,3.6,1.6,3.6,3.6v62.2L73,81.7   c-0.3-0.2-0.6-0.3-0.9-0.3H13.8C11.9,81.4,10.3,79.8,10.3,77.8z M145.7,121.2c0,2.1-3.8,5.2-6.4,5.2H10.7c-2.6,0-6.4-3.1-6.4-5.2   v-1c0-1.4,0.5-2.8,4.5-3.6c3.2-0.7,6.9-1.5,6.9-1.5c0.6-0.1,1-0.5,1.1-1.1c0.1-0.5,0-1.1-0.4-1.5c-0.3-0.3-0.6-0.7-0.6-1.7V84.4   h55.7l12.1,9.2c0.3,0.2,0.6,0.3,0.9,0.3c0.2,0,0.5-0.1,0.7-0.2c0.5-0.3,0.8-0.8,0.8-1.4V40.9h40.3v66.5H23.7V88.6   c0-0.8-0.7-1.5-1.5-1.5c-0.8,0-1.5,0.7-1.5,1.5V109c0,0.8,0.7,1.5,1.5,1.5h105.7c0.8,0,1.5-0.7,1.5-1.5V39.4   c0-0.8-0.7-1.5-1.5-1.5H86.1V34h44c0.1,0,0.1,0,0.2,0c1-0.1,2,0.2,2.7,0.9c0.8,0.7,1.3,1.8,1.3,3v73c0,1-0.4,1.5-0.7,1.8   c-0.4,0.4-0.6,1-0.5,1.5c0.1,0.6,0.6,1,1.1,1.1c0,0,4,0.9,7,1.4c4.5,0.9,4.5,2.8,4.5,3.6V121.2z"></path>		<path class="st2" d="M29.3,102.2h39.1c0.8,0,1.5-0.7,1.5-1.5c0-0.8-0.7-1.5-1.5-1.5H29.3c-0.8,0-1.5,0.7-1.5,1.5   C27.8,101.5,28.5,102.2,29.3,102.2z"></path>		<path class="st2" d="M29.3,93.7h39.1c0.8,0,1.5-0.7,1.5-1.5c0-0.8-0.7-1.5-1.5-1.5H29.3c-0.8,0-1.5,0.7-1.5,1.5   C27.8,93,28.5,93.7,29.3,93.7z"></path>		<path class="st2" d="M136.6,118.3H84.8c-1.1,0-2.1,0.6-2.7,1.6l-0.7,1.4l-10.7,0l-0.7-1.4c-0.5-1-1.5-1.6-2.6-1.6H15.4   c-0.8,0-1.5,0.7-1.5,1.5c0,0.8,0.7,1.5,1.5,1.5l51.8,0l0.7,1.4c0.5,1,1.5,1.6,2.7,1.6h10.8c1.1,0,2.1-0.6,2.7-1.6l0.7-1.4h51.9   c0.8,0,1.5-0.7,1.5-1.5C138.2,119,137.5,118.3,136.6,118.3z"></path>		<path class="st2" d="M87.7,60.4l8.1,6c0.2,0.1,0.4,0.2,0.6,0.2c0.3,0,0.6-0.1,0.8-0.4c0.3-0.4,0.2-1.1-0.2-1.4l-7-5.3l7-5.3   c0.4-0.3,0.5-1,0.2-1.4c-0.3-0.4-0.9-0.5-1.4-0.2l-8,6.1c-0.2,0.2-0.4,0.5-0.4,0.8C87.3,59.9,87.4,60.2,87.7,60.4z"></path>		<path class="st2" d="M114.2,66.1c0.2,0.3,0.5,0.4,0.8,0.4c0.2,0,0.4-0.1,0.6-0.2l8-6.1c0.2-0.2,0.4-0.5,0.4-0.8   c0-0.3-0.1-0.6-0.4-0.8l-8.1-6c-0.4-0.3-1.1-0.2-1.4,0.2c-0.3,0.4-0.2,1.1,0.2,1.4l7,5.3l-7,5.3C114,65.1,113.9,65.7,114.2,66.1z"></path>		<path class="st2" d="M102.8,69.9c0.1,0,0.2,0,0.3,0c0.4,0,0.8-0.3,0.9-0.7l5.2-18.8c0.1-0.5-0.2-1.1-0.7-1.2   c-0.5-0.1-1.1,0.2-1.2,0.7l-5.2,18.8C102,69.2,102.3,69.7,102.8,69.9z"></path>	</g>	<g id="XMLID_188_" class="st1">		<path id="XMLID_707_" class="st2" d="M53.4,40.2c0.3,0.3,0.6,0.4,0.9,0.4c0.3,0,0.7-0.1,0.9-0.4l6.7-6.7c0.5-0.5,0.5-1.3,0-1.8   c-0.5-0.5-1.3-0.5-1.8,0l-6.7,6.7C52.9,38.8,52.9,39.7,53.4,40.2z"></path>		<path id="XMLID_720_" class="st2" d="M56.7,43.4c0.3,0.3,0.6,0.4,0.9,0.4c0.3,0,0.7-0.1,0.9-0.4l6.7-6.7c0.5-0.5,0.5-1.3,0-1.8   c-0.5-0.5-1.3-0.5-1.8,0l-6.7,6.7C56.2,42.1,56.2,42.9,56.7,43.4z"></path>		<path id="XMLID_722_" class="st2" d="M69,70.8l-19-19l2.7-2.7c2.3,1.4,5.3,1.2,7.3-0.8l8.3-8.3c0.5-0.5,0.5-1.3,0-1.8   c-0.5-0.5-1.3-0.5-1.8,0l-8.3,8.3c-1.3,1.3-3.4,1.3-4.7,0c-0.5-0.5-1.3-0.5-1.8,0L48.2,50l-1.4-1.4l3.6-3.6   c0.2-0.2,0.4-0.6,0.4-0.9c0-0.3-0.1-0.7-0.4-0.9c-0.6-0.6-1-1.5-1-2.3c0-0.9,0.3-1.7,1-2.3l8.3-8.3c0.5-0.5,0.5-1.3,0-1.8   c-0.5-0.5-1.3-0.5-1.8,0l-8.3,8.3c-1.1,1.1-1.7,2.6-1.7,4.2c0,1.1,0.3,2.2,0.9,3.2L45,46.8l-3-3c0.9-3.1-0.2-6.7-2.8-9.3   c-3.8-3.8-9.7-4.4-12.8-1.2c-3.1,3.1-2.6,9,1.2,12.8c2,2,4.6,3.1,7.1,3.1c0.7,0,1.5-0.1,2.2-0.3l3,3l-19,19   c-0.5,0.5-0.5,1.3,0,1.8c0.3,0.3,0.6,0.4,0.9,0.4c0.3,0,0.7-0.1,0.9-0.4l19-19l1.4,1.4L27.4,70.8c-0.5,0.5-0.5,1.3,0,1.8   c0.3,0.3,0.6,0.4,0.9,0.4c0.3,0,0.7-0.1,0.9-0.4L45,56.9l15.7,15.7c0.3,0.3,0.6,0.4,0.9,0.4c0.3,0,0.7-0.1,0.9-0.4   c0.5-0.5,0.5-1.3,0-1.8L38.2,46.5c0,0,0,0-0.1,0c-0.1-0.1-0.2-0.2-0.3-0.2c0,0-0.1,0-0.1,0c-0.1,0-0.3-0.1-0.4-0.1c0,0,0,0,0,0   c-0.2,0-0.3,0-0.5,0.1c-2.3,0.9-5.2,0.2-7.3-1.9c-2.8-2.8-3.4-7.1-1.2-9.2c2.1-2.1,6.4-1.5,9.2,1.2c2.1,2.1,2.9,5,1.9,7.3   c-0.1,0.2-0.1,0.3-0.1,0.5c0,0,0,0,0,0c0,0.2,0,0.3,0.1,0.4c0,0,0,0,0,0c0.1,0.1,0.1,0.3,0.3,0.4c0,0,0,0,0,0l27.6,27.6   c0.3,0.3,0.6,0.4,0.9,0.4c0.3,0,0.7-0.1,0.9-0.4C69.5,72.1,69.5,71.3,69,70.8z"></path>		<rect id="XMLID_723_" x="40.8" y="64.6" class="st2" width="3.4" height="3.4"></rect>		<rect id="XMLID_724_" x="45.8" y="64.6" class="st2" width="3.4" height="3.4"></rect>		<rect id="XMLID_725_" x="40.8" y="69.7" class="st2" width="3.4" height="3.4"></rect>		<rect id="XMLID_726_" x="45.8" y="69.7" class="st2" width="3.4" height="3.4"></rect>	</g></g><g class="st0">	<g class="st1">		<g>			<g>				<path class="st2" d="M143.6,114.8c-0.5,0-0.9-0.2-1.3-0.5l-32.7-30.8c-0.2-0.2-0.5-0.2-0.7,0l-32.7,30.8c-0.8,0.7-2,0.7-2.7-0.1     c-0.7-0.8-0.7-2,0.1-2.7l32.7-30.8c1.7-1.6,4.3-1.6,6,0l32.7,30.8c0.8,0.7,0.8,1.9,0.1,2.7C144.6,114.6,144.1,114.8,143.6,114.8     z"></path>			</g>			<g>				<path class="st2" d="M132.5,104.4c-1.1,0-1.9-0.9-1.9-1.9V88.9c0-1.1,0.9-1.9,1.9-1.9s1.9,0.9,1.9,1.9v13.5     C134.4,103.5,133.6,104.4,132.5,104.4z"></path>			</g>		</g>		<g>			<g>				<path class="st2" d="M142.4,148h-27.5c-1.1,0-1.9-0.9-1.9-1.9c0-1.1,0.9-1.9,1.9-1.9h27.5c1.1,0,1.9,0.9,1.9,1.9     C144.3,147.1,143.4,148,142.4,148z"></path>			</g>			<g>				<path class="st2" d="M102.6,148H77.4c-1.1,0-1.9-0.9-1.9-1.9v-27.6c0-1.1,0.9-1.9,1.9-1.9c1.1,0,1.9,0.9,1.9,1.9v25.7h23.3     c1.1,0,1.9,0.9,1.9,1.9C104.5,147.1,103.7,148,102.6,148z"></path>			</g>			<g>				<path class="st2" d="M114.9,148C114.9,148,114.9,148,114.9,148c-1.1,0-2-0.9-1.9-2l0-0.2v-10.6c0-1.1-0.4-2.1-1.2-2.9     c-0.8-0.8-1.9-1.2-3-1.2c-2.3,0-4.2,1.8-4.2,4.1v10.6c0,1.1-0.8,2-1.8,2.1c-1,0-1.9-0.7-2-1.8l0-0.3v-10.6     c0-4.4,3.6-7.9,8.1-7.9c2.1,0,4.2,0.8,5.7,2.3c1.5,1.5,2.4,3.5,2.4,5.6l0,10.9C116.8,147.2,115.9,148,114.9,148z"></path>			</g>		</g>	</g>	<g class="st1">		<path class="st2" d="M122.7,67.6h-19.3c-0.5,0-1-0.2-1.4-0.6L92,57h-8.8c-1.1,0-1.9-0.9-1.9-1.9v-4.3H69.9c-0.5,0-1-0.2-1.4-0.6   l-7.5-7.5L54,49.9c-0.4,0.4-0.8,0.6-1.4,0.6l0,0c-0.5,0-1-0.2-1.4-0.6l-6.5-6.5l-6.7,6.7c-0.7,0.7-2,0.7-2.7,0l-7.5-7.5l-10,6.5   c-0.8,0.5-1.8,0.4-2.4-0.3L5,37.6c-0.7-0.7-0.7-1.8,0-2.6l11.7-13.5c0.4-0.4,0.9-0.7,1.4-0.7h63.3l18.8-18.3   c0.4-0.3,0.8-0.5,1.3-0.5h22.1c0.5,0,1,0.2,1.4,0.6l18.8,18.8c0.4,0.4,0.6,0.8,0.6,1.4v23.1c0,0.5-0.2,1-0.6,1.4L124,67   C123.7,67.3,123.2,67.6,122.7,67.6z M104.1,63.7h17.7L140.6,45V23.5L122.9,5.8h-20.5L83.6,24.1c-0.4,0.3-0.8,0.5-1.3,0.5H19   L9,36.2l8.2,8.8l9.9-6.5c0.8-0.5,1.8-0.4,2.4,0.2l7.2,7.2l6.7-6.7c0.4-0.4,0.8-0.6,1.4-0.6l0,0c0.5,0,1,0.2,1.4,0.6l6.5,6.5   l7.1-7.1c0.7-0.7,2-0.7,2.7,0l8.2,8.2h12.5c1.1,0,1.9,0.9,1.9,1.9v4.3h7.6c0.5,0,1,0.2,1.4,0.6L104.1,63.7z"></path>	</g>	<g class="st1">		<path class="st2" d="M112.5,46.8c-0.1,0-0.3,0-0.4,0c-1.2,0-2.2-1.1-2.1-2.3c0-1.2,1.1-2.2,2.3-2.1c4,0.1,7.5-2.7,7.9-6.3   c0.2-1.8-0.5-3.8-1.9-5.3c-1.5-1.7-3.8-2.7-6.1-2.6c-1.3,0.1-2.2-1-2.3-2.2c0-1.2,1-2.2,2.2-2.3c3.6-0.1,7,1.4,9.4,4   c2.3,2.5,3.4,5.7,3,8.8C123.9,42.3,118.6,46.8,112.5,46.8z"></path>	</g>	<g class="st1">		<path class="st2" d="M108.8,104.4c-0.4,0-0.9-0.1-1.2-0.4c-3.1-2.5-18.3-16.4-17.1-38.6c1-19,13.4-30.6,17.1-33.7   c0.8-0.7,2-0.6,2.7,0.3c0.7,0.8,0.6,2-0.3,2.7c-3.5,2.9-14.8,13.5-15.7,30.9c-1.1,20.9,14,34,15.7,35.5c0.8,0.7,0.9,1.9,0.3,2.7   C109.9,104.1,109.3,104.4,108.8,104.4z"></path>	</g></g><g class="st0">	<path class="st3" d="M111.1,138c-1,0.6-2.1,1.2-3.2,1.7c-4.9,2.5-10.1,4.4-15.4,5.8c-1,0.3-2.1,0.5-3.1,0.7  c-31.8,6.5-64.4-9.3-79.1-38.2C-3.5,80.6,1.2,47.5,22.2,25.2c0.4,0.3,0.9,0.6,1.4,0.8c0.5,0.2,1,0.2,1.5,0.2c0.8,0,1.5-0.2,2.2-0.5  c1.2-0.6,2.1-1.6,2.5-2.9c0.8-2.6-0.6-5.4-3.2-6.3c-2.6-0.8-5.4,0.6-6.3,3.2c-0.4,1.3-0.3,2.6,0.3,3.8c0.1,0.2,0.3,0.5,0.4,0.7  C-0.2,46.9-5.1,80.7,9.1,108.5c12.8,25.1,38.6,40.5,66,40.5c4.8,0,9.7-0.5,14.6-1.5c1-0.2,2.1-0.5,3.1-0.7  c5.4-1.4,10.7-3.3,15.7-5.9c1.1-0.6,2.1-1.1,3.2-1.7c0.3-0.2,0.5-0.6,0.3-1C111.8,137.9,111.4,137.8,111.1,138z M21.8,20.2  c0.5-1.5,1.9-2.4,3.4-2.4c0.4,0,0.7,0.1,1.1,0.2c1.9,0.6,2.9,2.6,2.3,4.5c-0.3,0.9-0.9,1.6-1.8,2.1c-0.8,0.4-1.8,0.5-2.7,0.2  c-0.9-0.3-1.6-0.9-2.1-1.8C21.6,22,21.5,21.1,21.8,20.2z M129.4,125.2c20.9-22.7,25.5-56.2,11.6-83.7c-15-29.5-48.2-45.6-80.6-39  c-1,0.2-2,0.4-3.2,0.7C51.7,4.5,46.4,6.5,41.5,9c-1.1,0.6-2.2,1.1-3.2,1.7c-0.3,0.2-0.5,0.6-0.3,1c0.2,0.3,0.6,0.5,1,0.3  c1-0.6,2.1-1.2,3.1-1.7c4.9-2.5,10-4.4,15.4-5.8c1.2-0.3,2.2-0.5,3.1-0.7c31.8-6.5,64.3,9.2,79.1,38.2c13.7,27,9.2,59.9-11.3,82.1  c-0.4-0.3-0.9-0.6-1.4-0.7c-1.3-0.4-2.6-0.3-3.8,0.3c-1.2,0.6-2.1,1.6-2.5,2.9c-0.8,2.6,0.6,5.4,3.2,6.3c0.5,0.2,1,0.2,1.5,0.2  c2.1,0,4-1.3,4.7-3.4c0.4-1.3,0.3-2.6-0.3-3.8C129.8,125.7,129.6,125.4,129.4,125.2z M128.8,129.3c-0.6,1.9-2.6,2.9-4.5,2.3  c-1.9-0.6-2.9-2.6-2.3-4.5c0.3-0.9,0.9-1.6,1.8-2.1c0.5-0.3,1-0.4,1.6-0.4c0.4,0,0.7,0.1,1.1,0.2c0.9,0.3,1.6,0.9,2.1,1.8  C129,127.4,129.1,128.4,128.8,129.3z M103.5,131c-23,11.7-51.2,8-70.4-9.2c0.3-0.4,0.6-0.9,0.7-1.4c0.9-2.6-0.6-5.4-3.2-6.3  c-2.6-0.9-5.4,0.6-6.3,3.2c-0.4,1.3-0.3,2.6,0.3,3.8c0.6,1.2,1.6,2.1,2.9,2.5c0.5,0.2,1,0.2,1.5,0.2c0.8,0,1.5-0.2,2.3-0.5  c0.3-0.1,0.5-0.3,0.8-0.5c12,10.8,27.4,16.4,43,16.4c9.9,0,19.9-2.3,29-6.9c25.6-13.1,39.6-41.8,33.8-70c-0.2-0.9-0.4-1.8-0.6-2.8  c-1.2-4.7-2.9-9.3-5.1-13.6c-0.2-0.4-0.6-0.5-1-0.3c-0.4,0.2-0.5,0.6-0.3,1c2.1,4.2,3.8,8.7,5,13.3c0.2,0.9,0.4,1.8,0.6,2.7  C142.2,90.1,128.6,118.2,103.5,131z M30.7,122c-0.8,0.4-1.8,0.5-2.7,0.2c-0.9-0.3-1.6-0.9-2.1-1.8c-0.4-0.8-0.5-1.8-0.2-2.7  c0.5-1.5,1.9-2.5,3.4-2.5c0.4,0,0.7,0.1,1.1,0.2c1.9,0.6,2.9,2.6,2.3,4.5C32.2,120.9,31.5,121.6,30.7,122z M123.1,27  c-1.3-0.4-2.6-0.3-3.8,0.3c-0.3,0.1-0.5,0.3-0.7,0.5C98.9,9.7,69.7,5.6,45.9,17.8c-25.6,13-39.6,41.8-33.8,70  c0.2,0.9,0.4,1.8,0.6,2.7c1.2,4.7,2.9,9.3,5.1,13.6c0.1,0.2,0.4,0.4,0.6,0.4c0.1,0,0.2,0,0.3-0.1c0.4-0.2,0.5-0.6,0.3-1  c-2.2-4.3-3.8-8.7-5-13.3c-0.2-0.9-0.4-1.8-0.6-2.7c-5.6-27.5,8-55.7,33.1-68.4c23.3-11.8,51.8-7.9,71,9.7  c-0.3,0.4-0.6,0.9-0.8,1.4c-0.9,2.6,0.6,5.4,3.2,6.3c0.5,0.2,1,0.2,1.5,0.2c2.1,0,4.1-1.3,4.7-3.4c0.4-1.3,0.3-2.6-0.3-3.8  C125.3,28.3,124.3,27.4,123.1,27z M124.9,32.8c-0.6,1.9-2.6,2.9-4.5,2.3c-1.9-0.6-2.9-2.6-2.3-4.5c0.3-0.9,0.9-1.6,1.8-2.1  c0.5-0.3,1.1-0.4,1.6-0.4c0.4,0,0.7,0.1,1.1,0.2c0.9,0.3,1.6,0.9,2.1,1.8C125.1,31,125.2,31.9,124.9,32.8z M32.3,74.3V89  c0,3.6,2.6,6.7,6,7.4v18.3c0,2,1.6,3.6,3.6,3.6h11.7c2,0,3.6-1.6,3.6-3.6v-6.2c0-0.4-0.3-0.7-0.7-0.7s-0.7,0.3-0.7,0.7v6.2  c0,1.2-1,2.1-2.1,2.1H41.9c-1.2,0-2.1-1-2.1-2.1V95.7c0-0.4-0.3-0.7-0.6-0.7c-3.1-0.3-5.4-3-5.4-6.1V74.3c0-2.1,1.3-3.9,3.3-4.6  l5.6-1.8c0,0,0,0,0,0c1.4,1.3,3.1,2.1,5.1,2.1c1.9,0,3.7-0.8,5.1-2.1c0,0,0,0,0,0l5.6,1.8c2,0.6,3.3,2.5,3.3,4.6v15.4  c0,0.4,0.3,0.7,0.7,0.7s0.7-0.3,0.7-0.7V75.1c3.5,1.7,7.3,2.6,11.2,2.7V92c-2.1,0.3-3.7,1.9-4,4H50.7l5.9-5.9c0.3-0.3,0.3-0.7,0-1  c-0.3-0.3-0.7-0.3-1,0l-7.1,7.1c-0.1,0.1-0.2,0.3-0.2,0.5c0,0.2,0.1,0.4,0.2,0.5l7.1,7.1c0.1,0.1,0.3,0.2,0.5,0.2s0.4-0.1,0.5-0.2  c0.3-0.3,0.3-0.7,0-1l-5.9-5.9h19.6c0.3,2.3,2.3,4.1,4.7,4.1c2.4,0,4.4-1.8,4.7-4.1h19.6l-5.9,5.9c-0.3,0.3-0.3,0.7,0,1  c0.1,0.1,0.3,0.2,0.5,0.2c0.2,0,0.4-0.1,0.5-0.2l7.1-7.1c0.1-0.1,0.2-0.3,0.2-0.5c0-0.2-0.1-0.4-0.2-0.5L94.4,89  c-0.3-0.3-0.7-0.3-1,0c-0.3,0.3-0.3,0.7,0,1l5.9,5.9H79.7c-0.3-2.1-1.9-3.7-4-4V77.8c3.9-0.1,7.7-1,11.2-2.7v14.6  c0,0.4,0.3,0.7,0.7,0.7s0.7-0.3,0.7-0.7V74.3c0-2.1,1.3-3.9,3.3-4.6l5.6-1.8c0,0,0,0,0,0c1.4,1.3,3.1,2.1,5.1,2.1  c1.9,0,3.7-0.8,5.1-2.1c0,0,0,0,0,0l5.6,1.8c2,0.6,3.3,2.5,3.3,4.6V89c0,3.1-2.3,5.7-5.4,6.1c-0.4,0-0.6,0.3-0.6,0.7v18.9  c0,1.2-1,2.1-2.1,2.1H96.5c-1.2,0-2.1-1-2.1-2.1v-6.2c0-0.4-0.3-0.7-0.7-0.7c-0.4,0-0.7,0.3-0.7,0.7v6.2c0,2,1.6,3.6,3.6,3.6h11.7  c2,0,3.6-1.6,3.6-3.6V96.3c3.5-0.7,6-3.8,6-7.4V74.3c0-2.7-1.7-5.1-4.3-5.9l-5-1.6c1.1-1.5,1.7-3.3,1.7-5.3c0-4.5-3.3-8.1-7.5-8.2  c0.1-1.1,0.2-2.2,0.2-3.3c0-15.3-12.5-27.8-27.8-27.8S47.2,34.7,47.2,50c0,1.1,0.1,2.2,0.2,3.3c-4.2,0.1-7.5,3.7-7.5,8.2  c0,2,0.6,3.9,1.7,5.3l-5.1,1.6C34,69.3,32.3,71.6,32.3,74.3z M78.4,96.6c0,1.8-1.5,3.3-3.3,3.3c-1.8,0-3.3-1.5-3.3-3.3  c0-1.8,1.5-3.3,3.3-3.3C76.9,93.3,78.4,94.8,78.4,96.6z M108.7,61.5c0,3.9-2.8,7.1-6.4,7.1c-3.5,0-6.4-3.2-6.4-7.1  c0-3.9,2.7-6.8,6.4-6.8C106,54.7,108.7,57.6,108.7,61.5z M75,23.6c14.5,0,26.4,11.8,26.4,26.4c0,1.1-0.1,2.3-0.2,3.3  c-3.8,0.6-6.6,3.9-6.6,8.1c0,2,0.6,3.9,1.7,5.3l-5.1,1.6c-2.3,0.7-3.9,2.7-4.2,5.1c-7.4,3.8-16.6,3.8-24,0  c-0.3-2.3-1.9-4.3-4.2-5.1l-5.1-1.6c1.1-1.5,1.7-3.3,1.7-5.3c0-4.2-2.8-7.5-6.6-8.1c-0.1-1.1-0.2-2.2-0.2-3.3  C48.6,35.5,60.5,23.6,75,23.6z M47.7,54.7c3.6,0,6.4,2.9,6.4,6.8c0,3.9-2.8,7.1-6.4,7.1c-3.5,0-6.4-3.2-6.4-7.1  C41.3,57.6,44.1,54.7,47.7,54.7z M57.7,53l3.3,0.5c0.3,1.3,0.8,2.6,1.6,3.7l-2,2.7c-0.2,0.3-0.2,0.7,0.1,0.9l3.3,3.3  c0.3,0.3,0.6,0.3,0.9,0.1l2.7-2c1.2,0.7,2.4,1.2,3.7,1.6l0.5,3.3c0.1,0.4,0.4,0.6,0.7,0.6c0,0,0,0,0,0l4.6,0c0.4,0,0.7-0.3,0.7-0.6  l0.5-3.3c1.3-0.3,2.6-0.9,3.7-1.5l2.7,2c0.3,0.2,0.7,0.2,0.9-0.1l3.3-3.2c0.3-0.3,0.3-0.6,0.1-0.9l-2-2.7c0.7-1.2,1.2-2.4,1.6-3.7  l3.3-0.5c0.4-0.1,0.6-0.4,0.6-0.7l0-4.6c0-0.4-0.3-0.7-0.6-0.7l-3.3-0.5c-0.3-1.3-0.9-2.6-1.6-3.7l2-2.7c0.2-0.3,0.2-0.7-0.1-0.9  l-3.3-3.2c-0.2-0.3-0.6-0.3-0.9-0.1l-2.7,2c-1.2-0.7-2.4-1.2-3.7-1.6L77.7,33c-0.1-0.4-0.4-0.6-0.7-0.6h0l-4.6,0  c-0.4,0-0.7,0.3-0.7,0.6l-0.5,3.3c-1.3,0.3-2.6,0.9-3.7,1.6l-2.7-2c-0.3-0.2-0.7-0.2-0.9,0.1l-3.2,3.2c-0.3,0.3-0.3,0.6-0.1,0.9  l2,2.7c-0.7,1.2-1.2,2.4-1.6,3.7L57.7,47c-0.4,0.1-0.6,0.3-0.6,0.7l0,4.6C57.1,52.6,57.3,52.9,57.7,53z M58.5,48.3l3.2-0.5  c0.3,0,0.5-0.3,0.6-0.6c0.3-1.5,0.9-2.9,1.7-4.2c0.2-0.3,0.1-0.6,0-0.8l-1.9-2.6l2.4-2.4l2.6,1.9c0.2,0.2,0.6,0.2,0.8,0  c1.3-0.8,2.7-1.4,4.2-1.7c0.3-0.1,0.5-0.3,0.6-0.6l0.5-3.2l3.4,0l0.5,3.2c0,0.3,0.3,0.5,0.6,0.6c1.5,0.3,2.9,0.9,4.2,1.7  c0.3,0.2,0.6,0.1,0.8,0l2.6-1.9l2.4,2.4l-1.9,2.6c-0.2,0.2-0.2,0.6,0,0.8c0.8,1.3,1.4,2.7,1.7,4.2c0.1,0.3,0.3,0.5,0.6,0.6l3.2,0.5  l0,3.4l-3.2,0.5c-0.3,0-0.5,0.3-0.6,0.6c-0.3,1.5-0.9,2.9-1.7,4.2c-0.2,0.3-0.2,0.6,0,0.8l1.9,2.6L85,62.7l-2.6-1.9  c-0.2-0.2-0.6-0.2-0.8,0c-1.3,0.8-2.7,1.4-4.2,1.7c-0.3,0.1-0.5,0.3-0.6,0.6l-0.5,3.2l-3.4,0L72.6,63c0-0.3-0.3-0.5-0.6-0.6  c-1.5-0.3-2.9-0.9-4.2-1.7c-0.1-0.1-0.3-0.1-0.4-0.1c-0.2,0-0.3,0-0.4,0.1l-2.6,1.9l-2.4-2.4l1.9-2.6c0.2-0.2,0.2-0.6,0-0.8  c-0.8-1.3-1.4-2.7-1.7-4.2c-0.1-0.3-0.3-0.5-0.6-0.6l-3.2-0.5L58.5,48.3z M74.7,56.4c1.7,0,3.3-0.7,4.5-1.9  c1.2-1.2,1.9-2.8,1.9-4.5c0-1.7-0.7-3.3-1.9-4.5c-1.2-1.2-2.8-1.9-4.5-1.9c-3.5,0-6.4,2.9-6.4,6.4C68.3,53.5,71.2,56.4,74.7,56.4z   M74.7,45c1.3,0,2.6,0.5,3.5,1.5c0.9,0.9,1.5,2.2,1.5,3.5v0c0,1.3-0.5,2.6-1.5,3.5C77.3,54.4,76,55,74.7,55c-2.7,0-5-2.2-5-5  C69.8,47.3,72,45,74.7,45z"></path></g><g id="XMLID_114_" class="st0">	<g id="XMLID_1674_" class="st1">		<rect id="XMLID_1223_" x="74.7" y="84.5" class="st2" width="9.7" height="9.5"></rect>		<rect id="XMLID_1222_" x="87" y="72.2" class="st2" width="9.7" height="9.8"></rect>		<rect id="XMLID_1220_" x="74.7" y="72.2" class="st2" width="9.7" height="9.8"></rect>		<rect id="XMLID_1219_" x="87" y="84.5" class="st2" width="9.7" height="9.5"></rect>	</g>	<path id="XMLID_1988_" class="st3" d="M31.4,54.2c-1.4,0-2.5,1.1-2.5,2.5v16l5-5v-11C33.9,55.3,32.7,54.2,31.4,54.2z"></path>	<g id="XMLID_1812_" class="st1">		<path id="XMLID_1814_" class="st2" d="M71.5,43.8l-58,58c-1,1-1,2.6,0,3.5c0.5,0.5,1.1,0.7,1.8,0.7c0.6,0,1.3-0.2,1.8-0.7   l61.6-61.6H71.5z"></path>		<path id="XMLID_1815_" class="st2" d="M1.7,101.9c-1,1-1,2.6,0,3.5c0.5,0.5,1.1,0.7,1.8,0.7c0.6,0,1.3-0.2,1.8-0.7l61.6-61.6h-7.1   L1.7,101.9z"></path>	</g>	<g id="XMLID_110_" class="st1">		<path id="XMLID_113_" class="st2" d="M148.3,101.9l-58-58h-7.1l61.6,61.6c0.5,0.5,1.1,0.7,1.8,0.7c0.6,0,1.3-0.2,1.8-0.7   C149.3,104.4,149.3,102.9,148.3,101.9z"></path>	</g>	<g id="XMLID_112_" class="st1">		<path id="XMLID_115_" class="st2" d="M25.2,101.9c-1,1-1,2.6,0,3.5c0.5,0.5,1.1,0.7,1.8,0.7c0.6,0,1.3-0.2,1.8-0.7l61.6-61.6h-7.1   L25.2,101.9z"></path>	</g></g><g class="st0">	<path class="st3" d="M109,32.5c0-10.7-8.8-19.5-19.5-19.5c-5.6,0-10.8,2.3-14.5,6.4c-3.7-4.1-8.9-6.4-14.5-6.4  C49.8,13,41,21.7,41,32.5c-0.1,1.9-0.2,21.4,32.6,43.1C74,75.9,74.5,76,75,76s1-0.1,1.4-0.4C109.2,53.9,109.1,34.3,109,32.5z   M75,70.4C45.4,50.3,46.1,32.9,46.1,32.7c0-0.1,0-0.1,0-0.2c0-8,6.5-14.4,14.4-14.4c5.1,0,9.7,2.6,12.3,6.9  c0.5,0.8,1.3,1.2,2.2,1.2c0.9,0,1.7-0.5,2.2-1.2c2.7-4.3,7.3-6.9,12.3-6.9c8,0,14.4,6.5,14.4,14.4c0,0,0,0.1,0,0.2  C103.9,32.9,104.6,50.3,75,70.4z"></path>	<path class="st3" d="M57.6,22.3c-3.7,0.9-6.3,3.7-7.3,7.7c-1.5,5.8,1.7,11.4,4.2,15.2c0.5,0.7,1.3,1.1,2.1,1.1c0.5,0,1-0.1,1.4-0.4  c1.2-0.8,1.5-2.4,0.7-3.5c-0.7-1-1.3-2-1.7-2.9c-1.7-3.2-2.3-5.9-1.7-8.2c0.5-1.8,1.4-3.1,2.7-3.7c0.3-0.1,0.5-0.2,0.8-0.3  c1.4-0.3,2.2-1.7,1.9-3.1C60.3,22.8,59,22,57.6,22.3z"></path>	<path class="st3" d="M67.1,91c-0.4-0.8-0.9-1.5-1.4-2.1L46.5,65.9c-2.1-2.5-5.2-4-8.6-4c-2.6,0-5.2,0.9-7.2,2.6  c-2.3,1.9-3.7,4.6-3.9,7.6c-0.2,1.8,0.1,3.5,0.8,5.2c-1.5-1.3-2.9-2.5-4-3.5l-2.1-38.9c-0.1-5.4-4.5-9.7-9.9-9.7l-0.2,0  c-5.5,0.1-9.8,4.7-9.7,10.1L1.3,77.1c0,0,0,0,0,0.1c0,2.2,0.9,4.4,2.3,6.2l27.8,31.9c1.9,4.2,1.1,12.2,0.1,16.5  c-0.3,1.3,0,2.6,0.8,3.6c0.8,1,2,1.6,3.3,1.6c0,0,0.1,0,0.1,0l28.8-0.5c2.3,0,4.2-2,4.2-4.3v-14.4c3.6-6.9,4.6-13.4,2.8-19.1  C70.7,95.8,69.2,93.2,67.1,91z M63.7,117.2v14.3l-27,0.5c0.6-3.2,2.2-13.1-0.9-19.2c-0.1-0.2-0.2-0.4-0.4-0.5l-28-32.1  c-0.7-0.8-1.1-1.9-1.1-3l0.3-41.8c0,0,0,0,0-0.1c-0.1-2.7,2.1-4.9,4.7-4.9l0.1,0c2.7,0,4.8,2.1,4.8,4.7c0,0,0,0.1,0,0.1l2.1,40  c0,0.7,0.3,1.3,0.8,1.8c0.7,0.6,17.2,15.4,23.3,18.5c1.1,0.5,2.4,0.2,3.2-0.7c0.7-1,0.7-2.3-0.1-3.2L33.3,77  c-1-1.2-1.5-2.8-1.4-4.4c0.1-1.6,0.9-3.1,2.1-4.1c1.1-0.9,2.5-1.4,3.9-1.4c1.8,0,3.5,0.8,4.7,2.2l19.2,22.9  c0.4,0.4,0.6,0.9,0.9,1.4c0.1,0.3,0.3,0.5,0.5,0.7c1.7,1.7,2.9,3.7,3.6,5.9c1.4,4.6,0.5,9.9-2.7,15.8  C63.8,116.3,63.7,116.7,63.7,117.2z"></path>	<path class="st3" d="M148.4,35.3c0-2.6-0.9-5.1-2.8-7.1c-1.8-1.9-4.3-3-7-3.1l-0.2,0c-5.4,0-9.8,4.2-9.9,9.7l-2.1,38.9  c-1.1,1-2.5,2.2-4,3.5c1.8-4.4,0.6-9.6-3.2-12.7c-2-1.7-4.6-2.6-7.2-2.6c-3.3,0-6.4,1.5-8.6,4L84.3,88.8c-0.5,0.7-1,1.4-1.4,2.1  c-2.1,2.2-3.6,4.8-4.5,7.7c-1.8,5.8-0.8,12.2,2.8,19.1v14.4c0,2.3,1.9,4.2,4.2,4.3l28.8,0.5c0,0,0.1,0,0.1,0c1.3,0,2.5-0.6,3.3-1.6  c0.8-1,1.1-2.4,0.8-3.6c-1-4.2-1.8-12.3,0.1-16.5l27.8-32c1.4-1.7,2.2-3.9,2.3-6.1c0,0,0,0,0-0.1L148.4,35.3z M114.5,112.2  c-0.1,0.2-0.3,0.3-0.4,0.5c-3,6-1.5,15.9-0.9,19.2l-27-0.5v-14.3c0-0.4-0.1-0.8-0.3-1.2c-3.2-5.9-4.1-11.2-2.7-15.8  c0.7-2.2,1.9-4.2,3.6-5.9c0.2-0.2,0.4-0.5,0.5-0.7c0.2-0.5,0.5-1,0.9-1.4l19.2-22.9c1.2-1.4,2.9-2.2,4.7-2.2c1.4,0,2.8,0.5,3.9,1.4  c2.6,2.2,2.9,6,0.8,8.5l-12.5,14.4c-0.8,0.9-0.8,2.3-0.1,3.2c0.7,1,2.1,1.3,3.2,0.7c6.2-3.1,22.6-17.8,23.3-18.5  c0.5-0.5,0.8-1.1,0.8-1.8l2.1-40c0,0,0-0.1,0-0.1c0.1-2.7,2.2-4.7,4.8-4.7l0.1,0c1.3,0,2.5,0.6,3.4,1.5c0.9,0.9,1.4,2.2,1.3,3.5  c0,0,0,0,0,0.1l0.3,41.8c0,1.1-0.4,2.1-1.1,2.9L114.5,112.2z"></path></g><g class="st0">	<path class="st3" d="M94.1,20.5c1.3-0.1,2.7-0.2,4.4-0.3C96.6,62.6,94.8,104.6,93,147c-27.1-5.1-53.9-10.2-81-15.3  c0.9-7.4,1.9-14.6,2.8-21.8c2.7-21.3,5.3-42.7,8.2-64c0.2-1.3,1.7-3,3-3.6c3.4-1.4,7-2.5,10.6-3.3c2.6-0.6,3.7-2,4.4-4.5  c2.6-9.4,6.6-18,13.7-24.9c4.5-4.3,9.9-6.9,16.2-6.6c1.5,0.1,3.6,0.5,4.4,1.5C77.2,7,79.9,7,82.4,8.1c3,1.4,5.7,3.7,8.1,6.2  C92.1,15.9,92.9,18.4,94.1,20.5z M34.4,104.2c-1,3.5-1.8,6.6-2.8,9.7c-0.7,2-0.1,3.3,1.3,4.5c4.6,3.8,9.9,6,15.7,6.7  c10.2,1.3,18.5-3.1,22.5-11.9c4.3-9.5,2.3-19.6-5.3-26.2c-2.6-2.3-5.5-4.2-8.2-6.3c-3.9-3-4.9-5.2-3.8-8.4c1-2.9,3.8-4.5,8.2-4.5  c1.1,0,2.3,0,3.4,0.3c2.6,0.6,5.1,1.3,7.9,2c1.1-4.7,2-9.3,3.1-13.9c0.5-2.3-1-2.5-2.5-2.8c-7.8-1.6-15.3-1-22.7,2.2  c-14,6-20.7,29.4-4.7,39.5c1,0.6,2,1.3,2.7,2.2c1.3,1.6,2.9,3.1,3.6,4.9c1.9,4.7-1,8.4-6,7.9c-1.7-0.2-3.4-0.7-4.9-1.5  C39.4,107.3,37.1,105.8,34.4,104.2z M46.5,36.2c2.7-1,5-2,7.3-2.5c2.5-0.6,3.4-1.9,4-4.4c1.6-6.8,4.7-12.8,10.3-17.3  c1.2-1,2.5-1.8,3.9-2.9C61.8,5.6,49.9,20,46.5,36.2z M63.9,30.6c4-1.4,7.9-2.6,11.7-4.2c0.9-0.3,2-1.6,1.9-2.3  c-0.3-3.6-0.9-7.2-1.4-10.8C70.2,15.1,64.4,23.4,63.9,30.6z M80.9,13.1c0.5,3.7,1.1,7.4,1.7,11.4c2.1-0.3,4.2-0.7,6.3-1  C88,17.8,85,13.9,80.9,13.1z"></path>	<path class="st3" d="M101.6,20.4c1.5,1.9,3.1,3.7,4.6,5.6c2,2.7,4.6,3.4,7.8,3.5c8.5,0.3,8.5,0.4,9.8,8.9  c4.7,32.6,9.4,65.2,14.1,97.8c0.1,0.4,0.1,0.9,0.2,1.8c-14.3,3-28.4,5.9-43.2,9c1.8-42.2,3.6-83.9,5.4-125.7  C100.7,21,101.1,20.7,101.6,20.4z"></path></g><g>	<path class="st2" d="M63,110.2c-2.5-2.4-4.9-4.8-7.6-7.4c3.4-3.3,6.8-6.5,10.2-9.9c12.3-12.3,24.5-24.8,36.9-37.1  c12.4-12.4,32.6-10.2,42.2,4.4c6.8,10.4,5.6,24.8-3.2,33.8c-13.3,13.7-26.8,27.1-40.3,40.6c-0.2,0.2-0.4,0.3-0.5,0.4  c-2.4-2.3-4.8-4.6-7.4-7.1c1.6-1.7,3.1-3.3,4.7-4.9c11.6-11.7,23.1-23.5,34.7-35.2c5.9-6,7.4-13.5,4-20.3  c-5-10.3-18.4-12.6-26.7-4.4c-8.1,7.9-16.1,16.1-24.1,24.2c-7.3,7.4-14.7,14.8-22,22.2C63.6,109.7,63.3,110,63,110.2z"></path>	<path class="st2" d="M49.2,15c2.5,2.3,5,4.6,7.6,6.9c-0.5,0.6-0.8,1-1.2,1.4c-13,13.1-26.1,26.1-39,39.3  c-7.7,7.8-6.6,20.1,2.2,26.2c6.8,4.7,15.6,3.8,21.8-2.3c6.6-6.6,13.2-13.2,19.7-19.8c8.5-8.6,17.1-17.2,25.6-25.8  c0.4-0.4,0.8-0.7,1-1c2.4,2.4,4.7,4.7,7.2,7.3c-0.1,0.2-0.6,0.7-1,1.1C78.1,63.5,63.1,78.7,48,93.8c-15,15-39.7,9.1-45.7-10.9  c-3-10.3-0.9-19.7,6.6-27.4c13-13.3,26.2-26.4,39.3-39.6C48.6,15.5,49.1,15.1,49.2,15z"></path>	<path class="st2" d="M113.9,27.1c-3,2.6-5.5,4.8-8.2,7.2c-0.7-0.7-1.8-1.7-2.9-2.8c-7.4-7.2-17.3-7.2-24.5,0.2  C63.4,46.9,48.5,62,33.7,77.2c-0.5,0.5-0.8,1.1-1,1.3c-2.8-2.5-5.4-4.7-8.1-7.1c1.5-1.6,2.8-2.9,4.1-4.3C43,52.6,57.2,38,71.5,23.5  c10.5-10.7,27.4-10.7,38-0.3C110.8,24.5,112.2,25.6,113.9,27.1z"></path>	<path class="st2" d="M36.4,123.3c2.8-2.9,5.1-5.2,7.7-7.9c1.1,1.2,2,2.4,3.1,3.5c7.1,7.1,17.2,7.2,24.4-0.1  c13.8-14,27.6-28.1,41.4-42.1c1.6-1.6,3.2-3.3,4.9-5c2.4,2.5,4.6,4.9,7,7.5c-2.9,2.9-6,6.2-9.2,9.4c-12,12.2-24.1,24.2-35.9,36.6  c-11.4,12.1-29.6,12.2-40.6,0.2C38.4,124.5,37.3,123.9,36.4,123.3z"></path></g><g class="st0">	<path class="st3" d="M149.1,97.3h-8.3c0-0.7,0-1.2,0-1.7c0-5.8,0-11.5,0-17.3c-0.1-6.5-4.2-11.2-10.6-12.2c-7-1-13.6,5.4-13.1,12.5  c0.6,8.5,9.9,13.9,17.7,9.5c0.2-0.1,0.4-0.2,0.9-0.4c0,3,0,5.8-0.1,8.7c0,0.3-0.7,0.8-1.2,0.9c-7.6,2.2-16.2-0.5-21.1-6.7  c-0.4-0.5-0.8-1-1.2-1.6c-4.7,6.4-10.8,9.8-18.8,9.1c-8-0.7-13.4-5.1-17-12.4c-2.2,5-5.4,8.6-10.2,10.8c-4.8,2.2-9.7,2.3-14.8,0.7  c0.1,4-1.1,7.4-4.2,10c-3.1,2.5-6.5,3.1-10.5,2.4c0.9,3.8,0.4,7.1-2.5,9.8c-2,1.9-4.4,2.3-7,2.2c-4.3-0.2-8.1-4.2-8.2-8.8  c-0.1-5.3,3.8-8.9,10.1-9.2l-1.1-6.1c-2.6,0.2-5.4,0.7-8.1,0.6C11.1,97.6,4,91.7,1.7,83.1c0-0.1-0.1-0.3-0.1-0.4  c-0.2-0.5-0.4-1-0.4-1.6c-0.4-2.4-0.2-4.7,0.1-6.9C2.1,71.3,3.1,68.5,5,66c6.5-8.6,18-10.7,27.1-4.9c0.2,0.1,0.4,0.2,0.9,0.5  c0-11.1,0-22,0-33.1c2.7,0,5.2,0,7.6,0c1,0,0.8,0.8,0.8,1.4c0,5.4,0,10.9,0,16.3c0,4,0,8,0,12c0,1.2,0.4,1.5,1.5,1.4  c1.2-0.1,2.4,0,3.7,0c0,0.6,0.1,1.1,0.1,1.6c0,5.7,0,11.4,0,17c0,5.8,3.1,9.9,8.5,11.5c6.4,1.9,13.7-2.9,14.2-9.5  c0.3-3.9,0.1-7.8,0.2-11.7c0-2.9,0-5.8,0-8.9c2.6,0,5,0,7.4,0.1c0.2,0,0.6,0.7,0.7,1.1c0.1,1.7,0,3.4,0,5.2c0,0.5,0,0.9,0.1,1.5  c8.1-10.2,17.7-12.3,29.2-6c0-0.7,0-1.2,0-1.8c0-9.8,0-19.7,0-29.5c0-1.3,0.3-1.8,1.7-1.7c2.2,0.1,4.4,0,6.8,0v34.4  c6.4-5.2,13.3-6.7,20.7-4c7.5,2.8,11.7,8.4,13.2,16.2V97.3z M21.4,66.2c-6.5-0.1-12,5.2-12,11.8c0,6.4,5.4,11.9,11.8,11.9  C27.5,90,32.9,84.6,33,78.1C33.1,71.7,27.8,66.3,21.4,66.2z M95.1,66.2c-6.6,0-11.8,5.1-11.9,11.7c-0.1,6.5,5.3,12,11.8,12  c6.4,0,11.8-5.4,11.8-11.9C106.9,71.6,101.5,66.2,95.1,66.2z M39.8,105c3.8,0,6.9-3.1,6.8-6.8c0-3.7-3.2-6.8-6.9-6.8  c-3.8,0-6.9,3.1-6.9,6.9C32.9,102.1,36,105.1,39.8,105z M33.3,112.8c0.1-3-2.2-5.4-5.2-5.4c-2.9,0-5.3,2.3-5.4,5.1  c-0.1,3,2.3,5.5,5.3,5.5C30.9,118,33.3,115.7,33.3,112.8z"></path>	<path class="st3" d="M126.6,49.8c0,2.2-1.8,4.1-3.9,4.1c-2.1,0-3.9-1.8-3.9-4c0-2.1,1.7-3.9,3.9-4  C124.8,45.9,126.6,47.6,126.6,49.8z"></path>	<path class="st3" d="M27.2,77.9c0,3.3-2.7,6-6,6c-3.3,0-6.1-2.8-6.1-6.1c0-3.3,2.8-6,6-6C24.5,71.8,27.2,74.5,27.2,77.9z"></path>	<path class="st3" d="M100.8,78.1c0,3.3-2.7,6-6,6c-3.3,0-6.1-2.7-6.1-6.1c0-3.4,2.8-6.1,6.1-6C98.1,72,100.8,74.8,100.8,78.1z"></path>	<path class="st3" d="M39.7,94.8c2,0,3.5,1.5,3.5,3.5c0,1.9-1.6,3.4-3.5,3.4c-1.9,0-3.5-1.5-3.5-3.4C36.3,96.3,37.8,94.8,39.7,94.8z  "></path>	<path class="st3" d="M30.7,112.7c0,1.5-1.3,2.7-2.7,2.7c-1.4,0-2.7-1.4-2.6-2.8c0-1.5,1.2-2.6,2.7-2.6  C29.5,110,30.7,111.1,30.7,112.7z"></path></g></svg>